<svg width="38" height="29" xmlns="http://www.w3.org/2000/svg">
    <path d="M37.6434442 25.9636228c-.0003676-.0054567-.0002941-.0108406-.0008088-.0162972-.0019852-.0216084-.0051468-.0427802-.0096318-.0635154-.0004412-.0020372-.0011029-.0040743-.0016176-.0061115-.004338-.0190619-.0097054-.0376873-.0160286-.0558761-.0016911-.0048746-.0035293-.0096037-.0053674-.0144056-.0061762-.0165154-.0131611-.0325944-.0208813-.0482368-.0013235-.0027647-.0022058-.0056021-.0036028-.0083668l-2.9492668-5.7562585V1.05633505C34.6362391.47385565 34.1573655 0 33.568718 0H4.0763438c-.58864755 0-1.06752107.47385565-1.06752107 1.05633505V19.9944094l-2.9491933 5.7563312c-.001397.0027647-.0022793.0056022-.00360277.0083669-.00772021.0156424-.01463164.0317213-.02088133.048164-.00183814.0048019-.00367629.0096037-.00536738.0144783-.0062497.0182616-.0116906.0369598-.01602863.0560217-.00044115.0019644-.00110288.0039287-.00154404.0058931-.00448507.0208081-.00764668.0419799-.00963188.0635882-.00051468.0053839-.00051468.0108406-.00080878.0162245C.00102936 25.9748271 0 25.9860314 0 25.9975268v1.3842434c0 .6918307.56872205 1.2545934 1.26787887 1.2545934H36.37733c.6991568 0 1.2678788-.5627627 1.2678788-1.2545934v-1.3842434c0-.0114954-.0010293-.0226997-.0017646-.033904zM4.11178323 1.09147589H33.5334256V19.5792673H4.11178323V1.09147589zM3.89899957 20.6705249H33.7461357l2.4497326 4.7812639H24.0802872l-.6081319-2.1818604c-.1238174-.4441715-.5354148-.7544003-1.0010537-.7544003h-7.2971414c-.4656389 0-.8773098.3102288-1.0010538.7543275l-.6081318 2.1819332H1.44926701l2.44973256-4.7812639zm19.03722623 4.7813367H14.708983l.514166-1.8449304h7.1989109l.5141659 1.8449304zm13.6060961 1.9298359c0 .0899984-.0740405.163263-.1649919.163263H1.26787887c-.09095141 0-.16499189-.0732646-.16499189-.163263v-.8385783H36.5423219v.8385783z" fill="#FFF" fill-rule="nonzero"/>
</svg>
