<svg width="34" height="34" xmlns="http://www.w3.org/2000/svg">
    <g fill="#FFF" fill-rule="nonzero">
        <path d="M33.1962363 6.09550962l-5.90625-5.90540625C27.1682915.06840864 27.0032411 0 26.8311161 0H7.55467375C6.48103433 0 5.60755837.87347596 5.60755837 1.94711538v1.23732693C2.41915693 4.43513942.15563529 7.54280048.15563529 11.1693678c0 .358399.29063943.6490385.64903846.6490385h7.92417549c.35839903 0 .64903846-.2906395.64903846-.6490385V3.24519231c0-.35839904-.29063943-.64903846-.64903846-.64903846-.62554327 0-1.23537981.06795432-1.82321395.1958149v-.84485337c0-.3578798.29115866-.64903846.64903846-.64903846H26.1820776v3.95913462c0 1.07363942.873476 1.94711538 1.9471154 1.94711538h3.9591346V31.2836538c0 .3578799-.2911587.6490385-.6490385.6490385H7.55467375c-.3578798 0-.64903846-.2911586-.64903846-.6490385v-5.5601177c0-.3583991-.29063942-.6490385-.64903846-.6490385s-.64903846.2906394-.64903846.6490385v5.5601177c0 1.0736395.87347596 1.9471154 1.94711538 1.9471154H31.4392891c1.0736395 0 1.9471154-.8734759 1.9471154-1.9471154V6.55444471c0-.172125-.0684086-.33724038-.1901682-.45893509zM8.07974587 3.92298317v6.59734613H1.48239972C1.792705 7.02538702 4.58486847 4.23328846 8.07974587 3.92298317zM28.129193 5.90625c-.3578798 0-.6490385-.29115865-.6490385-.64903846V2.21581731L31.1711064 5.90625H28.129193z"/>
        <path d="M6.12911222 22.3341538c-.1144-.114523-.27316923-.1803076-.43501539-.1803076-.16184615 0-.32061538.0657846-.43507692.1803076-.11446154.1144616-.18030769.2732308-.18030769.435077 0 .1618461.06578461.3206154.18030769.4350154.11446154.114523.27323077.1803692.43507692.1803692.16184616 0 .32061539-.0658462.43501539-.1803692.11452307-.1144.18036923-.2731693.18036923-.4350154 0-.1618462-.06584616-.3206154-.18036923-.435077zM11.2325258 4.92307692c-.3601634 0-.6522335.29207015-.6522335.65223348v7.310885H3.26940723c-.36016332 0-.65223348.2920702-.65223348.6522335 0 4.7505426 3.86480948 8.6154173 8.61535205 8.6154173 4.7505425 0 8.6154172-3.8648747 8.6154172-8.6154173 0-4.75054251-3.8648747-8.61535198-8.6154172-8.61535198zm.6522334 1.3333609c1.5268786.13553412 2.9201145.74276349 4.033151 1.67428334l-4.033151 4.03308574V6.25643782zm-.6522334 14.59294138c-3.81145681 0-6.9511131-2.9317243-7.28199115-6.6587168h7.28199115c.1800164 0 .3429443-.0729197.4609986-.1908435.0000652-.0000652.0001304-.0000652.0002609-.0001957l5.1467091-5.14664391c1.0625536 1.26970291 1.7029816 2.90420001 1.7029816 4.68544961 0 4.0312595-3.2796908 7.3109503-7.3109502 7.3109503zM27.8136722 20.9230769c-1.0368661 0-1.8804245.8476162-1.8804245 1.88947 0 .2611247.0530279.5099679.1487415.7363894l-3.61123 3.6286011c-.2481534-.121493-.5267069-.1898288-.8208053-.1898288-.2871409 0-.559301.0652497-.8029413.1813261l-2.3980428-2.409578c.0831147-.2131322.1292478-.4448442.1292478-.6873262 0-1.0418537-.8435584-1.8894699-1.8804246-1.8894699-1.0368661 0-1.8804245.8476162-1.8804245 1.8894699 0 .2822868.0623674.5500877.1733124.7908692l-2.3000726 2.3111366c-.2450194-.117777-.5191853-.1838454-.8083946-.1838454-1.0368661 0-1.8804246.8476162-1.8804246 1.8894699 0 1.0418538.8435585 1.88947 1.8804246 1.88947 1.0368661 0 1.8804246-.8476162 1.8804246-1.88947 0-.292049-.0663163-.5687934-.1845323-.8158731l2.2872231-2.2982253c.251162.1252089.5337272.1959381.8325893.1959381.3375362 0 .6542624-.0902537.9283656-.2473317l2.3304102 2.3416201c-.1198457.2484653-.1871649.5270992-.1871649.8212896 0 1.0418538.8435584 1.88947 1.8804246 1.88947 1.0368661 0 1.8804245-.8476162 1.8804245-1.88947 0-.2870734-.0643105-.5592831-.1788283-.8031506l3.5775077-3.5947166c.2638236.1419622.5650049.2227055.8846144.2227055 1.0368662 0 1.8804246-.8476162 1.8804246-1.8894699 0-1.0418538-.8435584-1.88947-1.8804246-1.88947zM11.882151 29.5096471c-.345622 0-.6268082-.2825387-.6268082-.6298233s.2811862-.6298233.6268082-.6298233c.168298 0 .3209258.0673281.433626.1761616.0025072.0026452.004701.0054794.0072709.0080617.0030087.0030232.0062681.0055425.0093395.0084396.1090646.1133682.1765718.267423.1765718.4371604 0 .3472216-.2811861.6298233-.6268082.6298233zm4.815642-4.8076933c-.345622 0-.6268082-.2825387-.6268082-.6298233s.2811862-.6298233.6268082-.6298233c.3456221 0 .6268082.2825387.6268082.6298233s-.2811861.6298233-.6268082.6298233zm4.9520355 4.8050481c-.345622 0-.6268082-.2825388-.6268082-.6298234 0-.3472845.2811862-.6298233.6268082-.6298233.345622 0 .6268082.2825388.6268082.6298233 0 .3472846-.2811862.6298234-.6268082.6298234zm6.1637184-6.0646947c-.3456221 0-.6268082-.2825387-.6268082-.6298233s.2812488-.6298233.6268082-.6298233c.345622 0 .6268082.2825387.6268082.6298233s-.2811862.6298233-.6268082.6298233zM25.3253472 16h-3.570193c-.3735313 0-.676442.2755692-.676442.6153846 0 .3398154.3028431.6153846.676442.6153846h3.570193c.3735312 0 .6764419-.2755692.6764419-.6153846 0-.3398154-.3029107-.6153846-.6764419-.6153846zM28.2829584 16.1803077C28.1685584 16.0658462 28.0097891 16 27.847943 16c-.1618462 0-.3206154.0657846-.4350769.1803077-.1144616.1144615-.1803077.2732308-.1803077.4350769 0 .1618462.0657846.3206154.1803077.4350154.1144615.1144615.2726153.1803692.4350769.1803692.1618461 0 .3206154-.0658461.4350154-.1803692.1144615-.1144.1803692-.2731692.1803692-.4350154 0-.1618461-.0658462-.3206154-.1803692-.4350769zM30.2322261 8.61538462h-8.4608739c-.3824758 0-.69264.27556923-.69264.61538461 0 .33981539.3100949.61538462.69264.61538462h8.4608739c.3824758 0 .69264-.27556923.69264-.61538462 0-.33981538-.3101642-.61538461-.69264-.61538461zM30.2322261 12.3076923h-8.4608739c-.3824758 0-.69264.2755692-.69264.6153846 0 .3398154.3100949.6153846.69264.6153846h8.4608739c.3824758 0 .69264-.2755692.69264-.6153846 0-.3398154-.3101642-.6153846-.69264-.6153846z"/>
    </g>
</svg>
