<svg width="115" height="234" xmlns="http://www.w3.org/2000/svg">
    <g fill="none" fill-rule="evenodd">
        <path d="M.5 10.7704003V223.055346c0 5.522847 4.4771525 10 10 10h94c5.522847 0 10-4.477153 10-10V33.5670979c0-4.6149911-3.158155-8.6306028-7.643139-9.7182922L12.8568614 1.05210805C7.48959677-.24955055 2.08336634 3.04627431.78170774 8.4135389.59456861 9.1851892.5 9.9763819.5 10.7704003z" fill="#FDCB6E"/>
        <path d="M49.35 197.730346h-3.475v6.75c-2.225-2.9-5.425-6.475-9.425-6.475-3.075 0-5.5 1.85-5.5 6 0 3.325 1.9 6.2 6.325 6.325v-4.125c-1.725 0-2.725-.75-2.725-2.025 0-1.3.85-1.9 2.175-1.9 3.075 0 6.25 4.125 9.45 8h3.175v-12.55zm.175-8.9c0-5.2-3.9-7.025-9.3-7.025-5.35 0-9.25 1.825-9.25 7.025s3.9 7.025 9.25 7.025c5.4 0 9.3-1.825 9.3-7.025zm-4 0c0 2.45855263-2.275346 2.80766967-5.072126 2.82434165l-.227874.00065835c-2.8 0-5.25-.3-5.25-2.825 0-2.525 2.45-2.825 5.25-2.825 2.9 0 5.3.3 5.3 2.825zm-2.925-20.45h-3.55v11h3.55v-11zm7.15-9.925c0-3.825-2.2-6.025-5.275-6.025-2.4 0-3.8 1.25-4.4 3.075h-.1c-.425-1.25-1.7-2.75-4.1-2.75-2.75 0-4.95 2.075-4.95 5.925 0 3.725 1.975 6.075 5.575 6.225v-4.175c-1-.075-2-.575-2-1.95 0-1.15.675-1.875 1.9-1.875 1.65 0 2 1.4 2 2.85v.8h3.475v-.8c0-2.225.65-3.2 2.275-3.2 1.2 0 2.05.725 2.05 2.05 0 1.575-.95 2.35-2.375 2.375v4.15c4.125-.125 5.925-2.875 5.925-6.675zm-.225-15.55c0-5.2-3.9-7.025-9.3-7.025-5.35 0-9.25 1.825-9.25 7.025s3.9 7.025 9.25 7.025c5.4 0 9.3-1.825 9.3-7.025zm-4 0c0 2.4585526-2.275346 2.8076697-5.072126 2.8243416l-.227874.0006584c-2.8 0-5.25-.3-5.25-2.825 0-2.525 2.45-2.825 5.25-2.825 2.9 0 5.3.3 5.3 2.825zm4.075-18.175H42v-5.75h-2.325v5.75H34.55v-7.375h-2.325v10.225H49.6v-2.85zm.175-17.95c0-4.95-3.675-8.875-8.9-8.875-5.2 0-8.875 3.925-8.875 8.875 0 4.9 3.675 8.875 8.875 8.875 5.225 0 8.9-3.975 8.9-8.875zm-2.475 0c0 3.45-2.5 5.95-6.425 5.95s-6.375-2.5-6.375-5.95 2.45-5.95 6.375-5.95 6.425 2.5 6.425 5.95zm2.3-14.525H36.625l12.975-8.575v-2.85H32.2v2.85h12.95l-12.95 8.575v2.85h17.4v-2.85zm0-20.85c0-5.575-3.275-9.225-8.625-9.225-5.375 0-8.75 3.65-8.75 9.225v5.675H49.6v-5.675zm-2.325 0v2.825H34.55v-2.825c0-4.1 2.45-6.3 6.425-6.3 3.95 0 6.3 2.2 6.3 6.3zm2.5-17.775c0-3.875-2.5-6-5.1-6-6.35 0-3.9 9.2-7.825 9.2-1.675 0-2.475-1.275-2.425-2.925.05-1.8 1.125-2.825 2.3-2.925v-3.15c-2.975.25-4.725 2.6-4.725 5.925 0 3.55 1.9 5.975 4.95 5.975 6.4 0 3.675-9.225 7.875-9.225 1.475 0 2.55 1.125 2.55 3.125 0 1.975-1.15 2.975-2.575 3.1v3.05c3.075 0 4.975-2.675 4.975-6.15zm34.825 152.9h-6.95v-2.175l6.95-4v-3.4l-7.2 4.3c-.725-2.925-2.925-4.025-4.975-4.025-2.825 0-5.2 2.025-5.2 6.15v6H84.6v-2.85zm-9.225-3.15v3.15H69.55v-3.15c0-2.225 1.125-3.225 2.875-3.225 1.725 0 2.95 1 2.95 3.225zm9.225-19.4h-2.325v6.75H76.95v-6h-2.325v6h-5.1v-6.75H67.2v9.6h17.4v-9.6zm.175-9.225c0-3.875-2.5-6-5.1-6-6.35 0-3.9 9.2-7.825 9.2-1.675 0-2.475-1.275-2.425-2.925.05-1.8 1.125-2.825 2.3-2.925v-3.15c-2.975.25-4.725 2.6-4.725 5.925 0 3.55 1.9 5.975 4.95 5.975 6.4 0 3.675-9.225 7.875-9.225 1.475 0 2.55 1.125 2.55 3.125 0 1.975-1.15 2.975-2.575 3.1v3.05c3.075 0 4.975-2.675 4.975-6.15zm-.175-15.975H69.55v-4.625h-2.325v12.125h2.325v-4.65H84.6v-2.85zm0-9.45l-3.55-1.25v-7.275l3.55-1.25v-3l-17.4 6.225v3.3l17.4 6.225v-2.975zm-5.875-7.725v5.675l-8.075-2.85 8.075-2.825zm5.875-10.6H71.625l12.975-8.575v-2.85H67.2v2.85h12.95l-12.95 8.575v2.85h17.4v-2.85zm0-21.775H69.55v-4.625h-2.325v12.125h2.325v-4.65H84.6v-2.85zm.175-13.225c0-3.875-2.5-6-5.1-6-6.35 0-3.9 9.2-7.825 9.2-1.675 0-2.475-1.275-2.425-2.925.05-1.8 1.125-2.825 2.3-2.925v-3.15c-2.975.25-4.725 2.6-4.725 5.925 0 3.55 1.9 5.975 4.95 5.975 6.4 0 3.675-9.225 7.875-9.225 1.475 0 2.55 1.125 2.55 3.125 0 1.975-1.15 2.975-2.575 3.1v3.05c3.075 0 4.975-2.675 4.975-6.15z" fill="#FFF" fill-rule="nonzero"/>
    </g>
</svg>
