<svg width="115" height="261" xmlns="http://www.w3.org/2000/svg">
    <g fill="none" fill-rule="evenodd">
        <path d="M.5 10.7630191V250.055346c0 5.522847 4.4771525 10 10 10h94c5.522847 0 10-4.477153 10-10V33.5035547c0-4.6170979-3.16098-8.6339674-7.648624-9.7196209L12.8513764 1.04339828C7.48337806-.25523105 2.07900851 3.04364434.78037918 8.4116427.59411946 9.1815636.5 9.9708885.5 10.7630191z" fill="#FD79A8"/>
        <path d="M47.775 230.580346h-18.25v6.925H33.5v-2.475h14.275v-4.45zm-.075-9.95c0-5.2-3.9-7.025-9.3-7.025-5.35 0-9.25 1.825-9.25 7.025s3.9 7.025 9.25 7.025c5.4 0 9.3-1.825 9.3-7.025zm-4 0c0 2.45855263-2.275346 2.80766967-5.072126 2.82434165L38.4 223.455346c-2.8 0-5.25-.3-5.25-2.825 0-2.525 2.45-2.825 5.25-2.825 2.9 0 5.3.3 5.3 2.825zm4-16.3c0-5.2-3.9-7.025-9.3-7.025-5.35 0-9.25 1.825-9.25 7.025s3.9 7.025 9.25 7.025c5.4 0 9.3-1.825 9.3-7.025zm-4 0c0 2.4585526-2.275346 2.8076697-5.072126 2.8243416L38.4 207.155346c-2.8 0-5.25-.3-5.25-2.825 0-2.525 2.45-2.825 5.25-2.825 2.9 0 5.3.3 5.3 2.825zm4.075-18.825h-7.6v-5.75H37.85v5.75h-5.125v-7.375H30.4v10.225h17.375v-2.85zm.175-17.95c0-4.95-3.675-8.875-8.9-8.875-5.2 0-8.875 3.925-8.875 8.875 0 4.9 3.675 8.875 8.875 8.875 5.225 0 8.9-3.975 8.9-8.875zm-2.475 0c0 3.45-2.5 5.95-6.425 5.95s-6.375-2.5-6.375-5.95 2.45-5.95 6.375-5.95 6.425 2.5 6.425 5.95zm2.3-14.525H34.8l12.975-8.575v-2.85h-17.4v2.85h12.95l-12.95 8.575v2.85h17.4v-2.85zm0-20.85c0-5.575-3.275-9.225-8.625-9.225-5.375 0-8.75 3.65-8.75 9.225v5.675h17.375v-5.675zm-2.325 0v2.825H32.725v-2.825c0-4.1 2.45-6.3 6.425-6.3 3.95 0 6.3 2.2 6.3 6.3zm2.5-17.775c0-3.875-2.5-6-5.1-6-6.35 0-3.9 9.2-7.825 9.2-1.675 0-2.475-1.275-2.425-2.925.05-1.8 1.125-2.825 2.3-2.925v-3.15c-2.975.25-4.725 2.6-4.725 5.925 0 3.55 1.9 5.975 4.95 5.975 6.4 0 3.675-9.225 7.875-9.225 1.475 0 2.55 1.125 2.55 3.125 0 1.975-1.15 2.975-2.575 3.1v3.05c3.075 0 4.975-2.675 4.975-6.15zm36.825 119.05h-6.95v-2.175l6.95-4v-3.4l-7.2 4.3c-.725-2.925-2.925-4.025-4.975-4.025-2.825 0-5.2 2.025-5.2 6.15v6h17.375v-2.85zm-9.225-3.15v3.15h-5.825v-3.15c0-2.225 1.125-3.225 2.875-3.225 1.725 0 2.95 1 2.95 3.225zm9.225-19.4H82.45v6.75h-5.325v-6H74.8v6h-5.1v-6.75h-2.325v9.6h17.4v-9.6zm.175-9.225c0-3.875-2.5-6-5.1-6-6.35 0-3.9 9.2-7.825 9.2-1.675 0-2.475-1.275-2.425-2.925.05-1.8 1.125-2.825 2.3-2.925v-3.15c-2.975.25-4.725 2.6-4.725 5.925 0 3.55 1.9 5.975 4.95 5.975 6.4 0 3.675-9.225 7.875-9.225 1.475 0 2.55 1.125 2.55 3.125 0 1.975-1.15 2.975-2.575 3.1v3.05c3.075 0 4.975-2.675 4.975-6.15zm-.175-15.975h-15.05v-4.625H67.4v12.125h2.325v-4.65h15.05v-2.85zm0-9.45l-3.55-1.25v-7.275l3.55-1.25v-3l-17.4 6.225v3.3l17.4 6.225v-2.975zm-5.875-7.725v5.675l-8.075-2.85 8.075-2.825zm5.875-10.6H71.8l12.975-8.575v-2.85h-17.4v2.85h12.95l-12.95 8.575v2.85h17.4v-2.85zm0-21.775h-15.05v-4.625H67.4v12.125h2.325v-4.65h15.05v-2.85zm.175-13.225c0-3.875-2.5-6-5.1-6-6.35 0-3.9 9.2-7.825 9.2-1.675 0-2.475-1.275-2.425-2.925.05-1.8 1.125-2.825 2.3-2.925v-3.15c-2.975.25-4.725 2.6-4.725 5.925 0 3.55 1.9 5.975 4.95 5.975 6.4 0 3.675-9.225 7.875-9.225 1.475 0 2.55 1.125 2.55 3.125 0 1.975-1.15 2.975-2.575 3.1v3.05c3.075 0 4.975-2.675 4.975-6.15z" fill="#FFF" fill-rule="nonzero"/>
    </g>
</svg>
