<svg width="114" height="346" xmlns="http://www.w3.org/2000/svg">
    <g fill="none" fill-rule="evenodd">
        <path d="M0 10.7722127V335.055346c0 5.522847 4.4771525 10 10 10h94c5.522847 0 10-4.477153 10-10V33.5826964c0-4.6144741-3.157462-8.629777-7.641793-9.7179657L12.3582074 1.05424696C6.99112317-.24815505 1.58443629 3.04692097.28203428 8.4140052.094679 9.1860799 0 9.9777309 0 10.7722127z" fill="#81ECEC"/>
        <path d="M50.875 315.280346c0-3.825-2.2-6.025-5.275-6.025-2.4 0-3.8 1.25-4.4 3.075h-.1c-.425-1.25-1.7-2.75-4.1-2.75-2.75 0-4.95 2.075-4.95 5.925 0 3.725 1.975 6.075 5.575 6.225v-4.175c-1-.075-2-.575-2-1.95 0-1.15.675-1.875 1.9-1.875 1.65 0 2 1.4 2 2.85v.8H43v-.8c0-2.225.65-3.2 2.275-3.2 1.2 0 2.05.725 2.05 2.05 0 1.575-.95 2.35-2.375 2.375v4.15c4.125-.125 5.925-2.875 5.925-6.675zm-.15-13.9l-15.05-6.275H32.5v12.075h3.65v-7.775l14.575 6.35v-4.375zm-.075-15.025c0-5.2-3.9-7.025-9.3-7.025-5.35 0-9.25 1.825-9.25 7.025s3.9 7.025 9.25 7.025c5.4 0 9.3-1.825 9.3-7.025zm-4 0c0 2.45855263-2.275346 2.80766967-5.072126 2.82434165L41.35 289.180346c-2.8 0-5.25-.3-5.25-2.825 0-2.525 2.45-2.825 5.25-2.825 2.9 0 5.3.3 5.3 2.825zm4-16.3c0-5.2-3.9-7.025-9.3-7.025-5.35 0-9.25 1.825-9.25 7.025s3.9 7.025 9.25 7.025c5.4 0 9.3-1.825 9.3-7.025zm-4 0c0 2.4585526-2.275346 2.8076697-5.072126 2.8243416l-.227874.0006584c-2.8 0-5.25-.3-5.25-2.825 0-2.525 2.45-2.825 5.25-2.825 2.9 0 5.3.3 5.3 2.825zm4.075-25.25h-2.3v5.875H33.35v2.85h17.375v-8.725zm0-11.975H48.4v6.75h-5.325v-6H40.75v6h-5.1v-6.75h-2.325v9.6h17.4v-9.6zm0-11.95l-17.375-6.525v3l14.45 5.175-14.45 5.15v3.05l17.375-6.55v-3.3zm-18.375-10.625l-2.725-5.525H27.2l3.05 5.525h2.1zm18.375-7.875H48.4v6.75h-5.325v-6H40.75v6h-5.1v-6.75h-2.325v9.6h17.4v-9.6zm0-13.1H48.4v6.75h-5.325v-6H40.75v6h-5.1v-6.75h-2.325v9.6h17.4v-9.6zm.175-9.225c0-3.875-2.5-6-5.1-6-6.35 0-3.9 9.2-7.825 9.2-1.675 0-2.475-1.275-2.425-2.925.05-1.8 1.125-2.825 2.3-2.925v-3.15c-2.975.25-4.725 2.6-4.725 5.925 0 3.55 1.9 5.975 4.95 5.975 6.4 0 3.675-9.225 7.875-9.225 1.475 0 2.55 1.125 2.55 3.125 0 1.975-1.15 2.975-2.575 3.1v3.05c3.075 0 4.975-2.675 4.975-6.15zm-.175-21.55c0-5.575-3.275-9.225-8.625-9.225-5.375 0-8.75 3.65-8.75 9.225v5.675h17.375v-5.675zm-2.325 0v2.825H35.675v-2.825c0-4.1 2.45-6.3 6.425-6.3 3.95 0 6.3 2.2 6.3 6.3zm2.325-21.65H48.4v6.75h-5.325v-6H40.75v6h-5.1v-6.75h-2.325v9.6h17.4v-9.6zm35 181.425h-7.6v-5.75H75.8v5.75h-5.125v-7.375H68.35v10.225h17.375v-2.85zm.175-17.95c0-4.95-3.675-8.875-8.9-8.875-5.2 0-8.875 3.925-8.875 8.875 0 4.9 3.675 8.875 8.875 8.875 5.225 0 8.9-3.975 8.9-8.875zm-2.475 0c0 3.45-2.5 5.95-6.425 5.95s-6.375-2.5-6.375-5.95 2.45-5.95 6.375-5.95 6.425 2.5 6.425 5.95zm2.3-14.525H72.75l12.975-8.575v-2.85h-17.4v2.85h12.95l-12.95 8.575v2.85h17.4v-2.85zm0-20.85c0-5.575-3.275-9.225-8.625-9.225-5.375 0-8.75 3.65-8.75 9.225v5.675h17.375v-5.675zm-2.325 0v2.825H70.675v-2.825c0-4.1 2.45-6.3 6.425-6.3 3.95 0 6.3 2.2 6.3 6.3zm2.5-17.775c0-3.875-2.5-6-5.1-6-6.35 0-3.9 9.2-7.825 9.2-1.675 0-2.475-1.275-2.425-2.925.05-1.8 1.125-2.825 2.3-2.925v-3.15c-2.975.25-4.725 2.6-4.725 5.925 0 3.55 1.9 5.975 4.95 5.975 6.4 0 3.675-9.225 7.875-9.225 1.475 0 2.55 1.125 2.55 3.125 0 1.975-1.15 2.975-2.575 3.1v3.05c3.075 0 4.975-2.675 4.975-6.15z" fill="#FFF" fill-rule="nonzero"/>
    </g>
</svg>
