<svg width="207" height="206" xmlns="http://www.w3.org/2000/svg">
    <g fill="none" fill-rule="evenodd">
        <path d="M.5 10.4771766V195.055346c0 5.522847 4.4771525 10 10 10h186c5.522847 0 10-4.477153 10-10V35.2771766c0-5.0120262-3.710303-9.2498709-8.678363-9.912279L11.8216372.56489763C6.34723667-.16502244 1.31764106 3.6811389.587721 9.1555394A10.00000076 10.00000076 0 00.5 10.4771766z" fill="#367DFF"/>
        <path d="M30.925 148v-18.25H24v3.975h2.475V148h4.45zm9.95-.075c5.2 0 7.025-3.9 7.025-9.3 0-5.35-1.825-9.25-7.025-9.25s-7.025 3.9-7.025 9.25c0 5.4 1.825 9.3 7.025 9.3zm0-4c-2.4585526 0-2.8076697-2.275346-2.8243416-5.072126L38.05 138.625c0-2.8.3-5.25 2.825-5.25 2.525 0 2.825 2.45 2.825 5.25 0 2.9-.3 5.3-2.825 5.3zM60.15 148v-10.55L64.1 148h3.45l3.925-10.525V148h4.275v-17.55h-5.025L65.85 142.6l-4.925-12.15h-5.05V148h4.275zm29.425 0v-3.425H83.1v-3.85h5.725v-3.3H83.1v-3.55h6.475v-3.425h-10.75V148h10.75zm7.05 0v-17.55H92.35V148h4.275zm12.975 0v-3.3H104v-14.25h-4.275V148h9.875zm11.925 0v-3.3h-5.6v-14.25h-4.275V148h9.875zm12.8 0v-3.425h-6.475v-3.85h5.725v-3.3h-5.725v-3.55h6.475v-3.425h-10.75V148h10.75zm9.95.175c4.05 0 7.45-2.4 7.45-7.25V130.45h-4.275v10.5c0 2.075-1.075 3.275-3.1 3.275-2.025 0-3.05-1.2-3.05-3.275v-10.5h-4.275v10.475c0 4.85 3.175 7.25 7.25 7.25zM159 148v-6.625h1.025l3.65 6.625h4.825l-4.05-6.95c2.7-.8 3.9-2.875 3.9-5.075 0-3.05-2.15-5.525-6.45-5.525h-7.175V148H159zm2.65-9.65H159V134h2.65c1.6 0 2.35.85 2.35 2.15 0 1.375-.75 2.2-2.35 2.2zm15.725 9.825c4.1 0 6.4-2.45 6.4-5.4 0-5.875-8.675-4.5-8.675-7.55 0-1.1.775-1.625 1.8-1.6 1.15.025 1.95.7 2.025 1.825h4.625c-.175-3.35-2.75-5.25-6.575-5.25-3.675 0-6.4 1.85-6.4 5.175-.05 6.225 8.725 4.475 8.725 7.725 0 1.025-.8 1.65-2.05 1.65-1.2 0-2.05-.65-2.175-2h-4.55c.125 3.55 3.075 5.425 6.85 5.425zM29.15 183v-7.1h5.35v-3.325h-5.35v-3.7h7.15v-3.425H24.875V183h4.275zm17.7.175c4.975 0 8.975-3.725 8.975-9S51.85 165.2 46.85 165.2c-4.975 0-9.025 3.7-9.025 8.975 0 5.275 4.05 9 9.025 9zm0-3.9c-2.85 0-4.65-2.025-4.65-5.1 0-3.125 1.8-5.1 4.65-5.1 2.8 0 4.625 1.975 4.625 5.1 0 3.075-1.825 5.1-4.625 5.1zM62.475 183v-10.825L69.625 183H73.9v-17.55h-4.275v10.875l-7.15-10.875H58.2V183h4.275zm21.1 0c5.6 0 9.2-3.575 9.2-8.775 0-5.225-3.6-8.775-9.2-8.775H77V183h6.575zm-.275-3.7h-2.025v-10.2H83.3c3.225 0 5.125 1.9 5.125 5.125s-1.9 5.075-5.125 5.075zm18.225 3.875c4.1 0 6.4-2.45 6.4-5.4 0-5.875-8.675-4.5-8.675-7.55 0-1.1.775-1.625 1.8-1.6 1.15.025 1.95.7 2.025 1.825h4.625c-.175-3.35-2.75-5.25-6.575-5.25-3.675 0-6.4 1.85-6.4 5.175-.05 6.225 8.725 4.475 8.725 7.725 0 1.025-.8 1.65-2.05 1.65-1.2 0-2.05-.65-2.175-2h-4.55c.125 3.55 3.075 5.425 6.85 5.425z" fill="#FFF" fill-rule="nonzero"/>
        <g fill-rule="nonzero">
            <path fill="#FF7058" d="M56.325 94h-11l1.8749443-4.1290442L48.8249837 86h4.0000326l1.6250394 3.8709558z"/>
            <path d="M62.170661 94H39.5836965C38.3414026 94 37.325 94.9529364 37.325 96.117659V103h26.9914118v-6.882341C64.4293574 94.9529364 63.4129548 94 62.170661 94z" fill="#FDCB6E"/>
            <path d="M54.325 89.6046382c-.9654814.4651577-1.9309628.9302041-2.8965597 1.2790724L50.8250578 91l-.6034981-.2325788c-.9654814-.3488683-1.9309628-.8139147-2.8965597-1.2790724L48.8939795 86h3.7413414L54.325 89.6046382z" fill="#F1543F"/>
            <g fill="#F8B64C">
                <path d="M24.325 55.20403977v4.62488073c0 11.2801704 6.96879681 20.9810738 16.7475299 25.042 3.1471673 1.353642 6.6315657 2.030409 10.2283745 2.030409 3.5968087 0 7.0812072-.676767 10.2283745-2.030409 9.7787331-4.0608182 16.7475299-13.7618296 16.7475299-25.0418921v-4.62498863H24.325zm49.4557171 4.62488073c0 5.4144602-1.9107609 10.3777784-5.1703386 14.325784-4.158753 4.9632103-10.3407849 8.2345569-17.3094741 8.2345569-6.9686893 0-13.1507211-3.1584262-17.30947412-8.2345569-3.14716733-3.8353011-5.17033865-8.9113238-5.17033865-14.325784v-.1128125H73.6683068v.1128125h.1124103zM68.0962379 49H33.73913265c-.7708004 0-1.32144739.67676704-1.32144739 1.35364205 0 .78957954.5505416 1.46645454 1.32144739 1.46645454H68.0962379c.7708004 0 1.3214474-.67676704 1.3214474-1.35364204 0-.7896875-.550647-1.46645455-1.3214474-1.46645455z"/>
            </g>
            <path d="M68.325 53v11.9283541C68.325 75.973146 61.3698333 86.0239172 50.825 90c-10.5448333-4.0865413-17.5-14.026854-17.5-25.1821044V53h35z" fill="#FDCB6E"/>
            <path fill="#FFF" d="M50.3250544 57l2.3862579 7.2380385H60.325l-6.1363871 4.5238147L56.4613327 76l-6.1362783-4.5238147L44.1886673 76l2.2727198-7.2381468L40.325 64.2380385h7.6136877z"/>
            <path fill="#FFC952" d="M33.325 52h35v2h-35z"/>
        </g>
    </g>
</svg>
