<svg width="115" height="289" xmlns="http://www.w3.org/2000/svg">
    <g fill="none" fill-rule="evenodd">
        <path d="M.5 10.7673644V278.055346c0 5.522847 4.4771525 10 10 10h94c5.522847 0 10-4.477153 10-10V33.540965c0-4.6158574-3.159317-8.6319864-7.645394-9.7188389L12.8546059 1.04852538C7.48703938-.25188757 2.08157398 3.04519187.78116103 8.4127584.59438378 9.1836976.5 9.9741223.5 10.7673644z" fill="#74B9FF"/>
        <path d="M49.6125 252.667846h-3.25v-2.05h-3.7v2.05h-11.05v4.775l11.3 7.9h3.45v-8.4h3.25v-4.275zm-6.95 3.975v4.2l-6.35-4.2h6.35zm6.875-15.15c0-5.2-3.9-7.025-9.3-7.025-5.35 0-9.25 1.825-9.25 7.025s3.9 7.025 9.25 7.025c5.4 0 9.3-1.825 9.3-7.025zm-4 0c0 2.4585526-2.275346 2.8076697-5.072126 2.8243416l-.227874.0006584c-2.8 0-5.25-.3-5.25-2.825 0-2.525 2.45-2.825 5.25-2.825 2.9 0 5.3.3 5.3 2.825zm4-16.3c0-5.2-3.9-7.025-9.3-7.025-5.35 0-9.25 1.825-9.25 7.025s3.9 7.025 9.25 7.025c5.4 0 9.3-1.825 9.3-7.025zm-4 0c0 2.45855263-2.275346 2.80766967-5.072126 2.82434165l-.227874.00065835c-2.8 0-5.25-.3-5.25-2.825 0-2.525 2.45-2.825 5.25-2.825 2.9 0 5.3.3 5.3 2.825zm-2.925-20.45h-3.55v11h3.55v-11zm7-10.925c0-4.05-2.5-6.3-6.35-6.3-2.95 0-5.975 1.525-5.975 5.5 0 1.45.525 2.7 1.25 3.35h-3.45v-7.8h-3.75v11.675h10.875v-4.125c-.85-.225-1.5-.925-1.5-2.125 0-1.525.875-2.35 2.525-2.35 1.575 0 2.75.7 2.75 2.325 0 1.4-.85 2.125-1.8 2.3v4.175c3.15-.15 5.425-2.525 5.425-6.625zm-.075-15.675c0-5.2-3.9-7.025-9.3-7.025-5.35 0-9.25 1.825-9.25 7.025s3.9 7.025 9.25 7.025c5.4 0 9.3-1.825 9.3-7.025zm-4 0c0 2.4585526-2.275346 2.8076697-5.072126 2.8243416l-.227874.0006584c-2.8 0-5.25-.3-5.25-2.825 0-2.525 2.45-2.825 5.25-2.825 2.9 0 5.3.3 5.3 2.825zm4-16.3c0-5.2-3.9-7.025-9.3-7.025-5.35 0-9.25 1.825-9.25 7.025s3.9 7.025 9.25 7.025c5.4 0 9.3-1.825 9.3-7.025zm-4 0c0 2.4585526-2.275346 2.8076697-5.072126 2.8243416l-.227874.0006584c-2.8 0-5.25-.3-5.25-2.825 0-2.525 2.45-2.825 5.25-2.825 2.9 0 5.3.3 5.3 2.825zm4.075-18.175h-7.6v-5.75h-2.325v5.75h-5.125v-7.375h-2.325v10.225h17.375v-2.85zm.175-17.95c0-4.95-3.675-8.875-8.9-8.875-5.2 0-8.875 3.925-8.875 8.875 0 4.9 3.675 8.875 8.875 8.875 5.225 0 8.9-3.975 8.9-8.875zm-2.475 0c0 3.45-2.5 5.95-6.425 5.95s-6.375-2.5-6.375-5.95 2.45-5.95 6.375-5.95 6.425 2.5 6.425 5.95zm2.3-14.525h-12.975l12.975-8.575v-2.85h-17.4v2.85h12.95l-12.95 8.575v2.85h17.4v-2.85zm0-20.85c0-5.575-3.275-9.225-8.625-9.225-5.375 0-8.75 3.65-8.75 9.225v5.675h17.375v-5.675zm-2.325 0v2.825h-12.725v-2.825c0-4.1 2.45-6.3 6.425-6.3 3.95 0 6.3 2.2 6.3 6.3zm2.5-17.775c0-3.875-2.5-6-5.1-6-6.35 0-3.9 9.2-7.825 9.2-1.675 0-2.475-1.275-2.425-2.925.05-1.8 1.125-2.825 2.3-2.925v-3.15c-2.975.25-4.725 2.6-4.725 5.925 0 3.55 1.9 5.975 4.95 5.975 6.4 0 3.675-9.225 7.875-9.225 1.475 0 2.55 1.125 2.55 3.125 0 1.975-1.15 2.975-2.575 3.1v3.05c3.075 0 4.975-2.675 4.975-6.15zm34.825 189.275h-6.95v-2.175l6.95-4v-3.4l-7.2 4.3c-.725-2.925-2.925-4.025-4.975-4.025-2.825 0-5.2 2.025-5.2 6.15v6h17.375v-2.85zm-9.225-3.15v3.15h-5.825v-3.15c0-2.225 1.125-3.225 2.875-3.225 1.725 0 2.95 1 2.95 3.225zm9.225-19.4h-2.325v6.75h-5.325v-6h-2.325v6h-5.1v-6.75h-2.325v9.6h17.4v-9.6zm.175-9.225c0-3.875-2.5-6-5.1-6-6.35 0-3.9 9.2-7.825 9.2-1.675 0-2.475-1.275-2.425-2.925.05-1.8 1.125-2.825 2.3-2.925v-3.15c-2.975.25-4.725 2.6-4.725 5.925 0 3.55 1.9 5.975 4.95 5.975 6.4 0 3.675-9.225 7.875-9.225 1.475 0 2.55 1.125 2.55 3.125 0 1.975-1.15 2.975-2.575 3.1v3.05c3.075 0 4.975-2.675 4.975-6.15zm-.175-15.975h-15.05v-4.625h-2.325v12.125h2.325v-4.65h15.05v-2.85zm0-9.45l-3.55-1.25v-7.275l3.55-1.25v-3l-17.4 6.225v3.3l17.4 6.225v-2.975zm-5.875-7.725v5.675l-8.075-2.85 8.075-2.825zm5.875-10.6h-12.975l12.975-8.575v-2.85h-17.4v2.85h12.95l-12.95 8.575v2.85h17.4v-2.85zm0-21.775h-15.05v-4.625h-2.325v12.125h2.325v-4.65h15.05v-2.85zm.175-13.225c0-3.875-2.5-6-5.1-6-6.35 0-3.9 9.2-7.825 9.2-1.675 0-2.475-1.275-2.425-2.925.05-1.8 1.125-2.825 2.3-2.925v-3.15c-2.975.25-4.725 2.6-4.725 5.925 0 3.55 1.9 5.975 4.95 5.975 6.4 0 3.675-9.225 7.875-9.225 1.475 0 2.55 1.125 2.55 3.125 0 1.975-1.15 2.975-2.575 3.1v3.05c3.075 0 4.975-2.675 4.975-6.15z" fill="#FFF" fill-rule="nonzero"/>
    </g>
</svg>
