<svg width="32" height="32" xmlns="http://www.w3.org/2000/svg">
    <path d="M23.1826363 18.7635982c-.1169439-.1171876-.2761244-.1831057-.4418967-.1831057-.0063476.0012208-.2465831-.012207-.4418966.1831057l-.4416524.4416508-1.4360421-1.4357924c3.1689604-4.4421429 2.6870246-10.56983428-1.215582-14.47218174-4.396017-4.39600025-11.51177359-4.39673269-15.90827893 0-4.39601702 4.39575618-4.39674946 11.51172974 0 15.90821824 3.89284088 3.8930702 10.01811423 4.3925823 14.47199283 1.2155774l1.436042 1.4360365-.4416525.4416508c-.2438976.2438968-.2441418.6398932 0 .8840341l7.9014049 7.9006423c1.2209531 1.2216808 3.1972809 1.2224132 4.4184781.0002441 1.2216855-1.2207043 1.2221738-3.1972687 0-4.4184613l-7.9009166-7.9016188zm-3.0935206 2.2097189l-1.3381411-1.3381361c.1555183-.1394043.3076186-.2824709.4545919-.4296879.1472176-.1469727.2902847-.2990725.4296896-.4543461l1.3381412 1.3381361-.8842816.884034zM4.18108091 18.3217033c-3.9077335-3.9074745-3.90822176-10.23267582 0-14.14063848 3.90748932-3.9077186 10.23271479-3.90820684 14.14069239 0 3.8989444 3.89868534 3.9187198 10.22242178 0 14.14063848-3.9629095 3.9633826-10.28642601 3.8544958-14.14069239 0zm18.55965869 1.7675798l1.7673425 1.7675798-2.6511357 2.6511255-1.7675865-1.7673357 2.6513797-2.6513696zm7.45902 10.1106053c-.7324254.733155-1.9177337.7333991-2.6506474 0l-4.8083726-4.8081101 2.6511358-2.6511256 4.8081284 4.8085984c.7329136.7321784.733646 1.9174823-.0002442 2.6506373z" fill="#FFF" fill-rule="nonzero"/>
</svg>
