<svg width="40" height="30" xmlns="http://www.w3.org/2000/svg">
    <g fill="#FFF" fill-rule="nonzero">
        <path d="M18.3305963 6.30909073c0 .32132928.2604889.58181818.5818182.58181818.3213292 0 .5818181-.2604889.5818181-.58181818-.05617-1.30420289-1.0346771-2.38276229-2.3272727-2.56523637v-.05294545c0-.32132931-.2604889-.58181818-.5818182-.58181818-.3213292 0-.5818181.26048887-.5818181.58181818v.05294545c-1.2925956.18247408-2.2711027 1.26103348-2.3272728 2.56523637.0561701 1.30420288 1.0346772 2.3827623 2.3272728 2.56523636v2.87243641c-.6474711-.1468873-1.1210449-.7023894-1.1636364-1.3649455 0-.32132928-.2604889-.58181818-.5818182-.58181818-.3213293 0-.5818182.2604889-.5818182.58181818.0561701 1.3042029 1.0346772 2.3827623 2.3272728 2.5652364v.0529454c0 .3213293.2604889.5818182.5818181.5818182.3213293 0 .5818182-.2604889.5818182-.5818182v-.0529454c1.2925956-.1824741 2.2711027-1.2610335 2.3272727-2.5652364-.05617-1.30420288-1.0346771-2.3827623-2.3272727-2.56523636V4.94414527c.6474711.14688724 1.1210449.70238937 1.1636364 1.36494546zm-3.4909091 0c.0425915-.66255609.5161653-1.21805822 1.1636364-1.36494546v2.72989091c-.6474711-.14688721-1.1210449-.70238935-1.1636364-1.36494545zm3.4909091 4.07272727c-.0425915.6625561-.5161653 1.2180582-1.1636364 1.3649455V9.01687255c.6474711.14688721 1.1210449.70238935 1.1636364 1.36494545z"/>
        <path d="M2.1327781 17.5898988h1.25672728v1.9393939c0 .7140652.56265596 1.2929293 1.25672727 1.2929293h1.25672727v1.939394c0 .7140651.56265597 1.2929293 1.25672727 1.2929293H19.0985963c.3470356 0 .6283636-.2894321.6283636-.6464647 0-.3570325-.281328-.6464646-.6283636-.6464646H7.15968719v-1.939394H19.0985963c.3470356 0 .6283636-.2894321.6283636-.6464646 0-.3570325-.281328-.6464647-.6283636-.6464647H4.64623265v-1.9393939H16.5851417c4.1578822 0 7.5403637-3.7701818 7.5403637-8.4040404.0312129-2.82577086-1.2930926-5.48586965-3.5402008-7.11111111h10.4522008v8.40404041c0 .3570325.281328.6464646.6283636.6464646s.6283636-.2894321.6283636-.6464646V2.07474729c0-.71406513-.5626559-1.29292929-1.2567272-1.29292929H7.78805083c-.34703562 0-.62836364.28943208-.62836364.64646465 0 .35703256.28132802.64646464.62836364.64646464h4.79692797C10.3378707 3.69998875 9.01356521 6.36008754 9.0447781 9.1858584c-.03121289 2.8257709 1.2930926 5.4858696 3.5402007 7.1111111H2.1327781V2.07474729h2.51345455c.34703565 0 .62836364-.28943208.62836364-.64646464 0-.35703257-.28132799-.64646465-.62836364-.64646465H2.1327781c-.6940713 0-1.25672727.57886416-1.25672727 1.29292929V16.2969695c0 .7140651.56265597 1.2929293 1.25672727 1.2929293zm8.1687273-8.4040404c0-3.92080808 2.8188392-7.11111111 6.2836363-7.11111111s6.2836364 3.19030303 6.2836364 7.11111111c0 3.9208081-2.8188393 7.1111111-6.2836364 7.1111111-3.4647971 0-6.2836363-3.190303-6.2836363-7.1111111z"/>
        <path d="M6.11241447 3.10909073H3.78514174c-.32132931 0-.58181818.26048887-.58181818.58181818v2.32727273c0 .32132931.26048887.58181818.58181818.58181818s.58181818-.26048887.58181818-.58181818V4.27272709h1.74545455c.32132931 0 .58181818-.26048887.58181818-.58181818s-.26048887-.58181818-.58181818-.58181818zM28.2215054 6.59999982c.3213293 0 .5818182-.26048887.5818182-.58181818V3.69090891c0-.32132931-.2604889-.58181818-.5818182-.58181818h-2.3272728c-.3213292 0-.5818181.26048887-.5818181.58181818s.2604889.58181818.5818181.58181818h1.7454546v1.74545455c0 .32132931.2604889.58181818.5818182.58181818zM3.78514174 11.2545453c-.32132931 0-.58181818.2604889-.58181818.5818182v2.3272727c0 .3213293.26048887.5818182.58181818.5818182h2.32727273c.32132931 0 .58181818-.2604889.58181818-.5818182 0-.3213293-.26048887-.5818182-.58181818-.5818182H4.36695992v-1.7454545c0-.3213293-.26048887-.5818182-.58181818-.5818182zM29.9669599 11.2545453c-5.1412689 0-9.3090909 4.1678219-9.3090909 9.3090909 0 5.1412689 4.167822 9.3090909 9.3090909 9.3090909 5.141269 0 9.3090909-4.167822 9.3090909-9.3090909-.0054972-5.1389902-4.1701007-9.3035937-9.3090909-9.3090909zm0 17.2883117c-4.4068019 0-7.9792208-3.5724189-7.9792208-7.9792208 0-4.406802 3.5724189-7.9792208 7.9792208-7.9792208 4.406802 0 7.9792208 3.5724188 7.9792208 7.9792208-.0047641 4.4048271-3.5743937 7.9744566-7.9792208 7.9792208z"/>
        <path d="M29.9693479 20.9089701V16.49142c0-.3216115-.2610234-.5823293-.5830122-.5823293-.3219887 0-.5830121.2607178-.5830121.5823293v4.6586344c0 .1544307.0614789.3025243.1708225.4117068l2.3320488 2.3293172c.2287617.2206866.5923898.2175305.8172773-.0070936.2248875-.224624.2280473-.5878263.0071019-.81632l-2.1612262-2.1586947z"/>
    </g>
</svg>
