<?xml version="1.0" encoding="UTF-8"?>
<svg width="64px" height="64px" viewBox="0 0 64 64" version="1.1" xmlns="http://www.w3.org/2000/svg" xmlns:xlink="http://www.w3.org/1999/xlink">
    <!-- Generator: Sketch 62 (91390) - https://sketch.com -->
    <title>Icone</title>
    <desc>Created with Sketch.</desc>
    <g id="Page-1" stroke="none" stroke-width="1" fill="none" fill-rule="evenodd">
        <g id="Landing-Page" transform="translate(-1027.000000, -6015.000000)">
            <g id="Bloc-8" transform="translate(0.000000, 5525.000000)">
                <g id="Optimisation-des-flux-de-trésorerie-Copy-4" transform="translate(961.000000, 470.000000)">
                    <g id="Icone" transform="translate(66.000000, 20.000000)">
                        <circle id="Oval" fill="#367DFF" cx="32" cy="32" r="32"></circle>
                        <g id="money" transform="translate(12.000000, 20.000000)" fill="#FFFFFF" fill-rule="nonzero">
                            <path d="M18.5305963,5.52727273 C18.5305963,5.84860201 18.7910852,6.10909091 19.1124145,6.10909091 C19.4337437,6.10909091 19.6942326,5.84860201 19.6942326,5.52727273 C19.6380626,4.22306984 18.6595555,3.14451044 17.3669599,2.96203636 L17.3669599,2.90909091 C17.3669599,2.5877616 17.106471,2.32727273 16.7851417,2.32727273 C16.4638125,2.32727273 16.2033236,2.5877616 16.2033236,2.90909091 L16.2033236,2.96203636 C14.910728,3.14451044 13.9322209,4.22306984 13.8760508,5.52727273 C13.9322209,6.83147561 14.910728,7.91003503 16.2033236,8.09250909 L16.2033236,10.9649455 C15.5558525,10.8180582 15.0822787,10.2625561 15.0396872,9.6 C15.0396872,9.27867072 14.7791983,9.01818182 14.457869,9.01818182 C14.1365397,9.01818182 13.8760508,9.27867072 13.8760508,9.6 C13.9322209,10.9042029 14.910728,11.9827623 16.2033236,12.1652364 L16.2033236,12.2181818 C16.2033236,12.5395111 16.4638125,12.8 16.7851417,12.8 C17.106471,12.8 17.3669599,12.5395111 17.3669599,12.2181818 L17.3669599,12.1652364 C18.6595555,11.9827623 19.6380626,10.9042029 19.6942326,9.6 C19.6380626,8.29579712 18.6595555,7.2172377 17.3669599,7.03476364 L17.3669599,4.16232727 C18.014431,4.30921451 18.4880048,4.86471664 18.5305963,5.52727273 Z M15.0396872,5.52727273 C15.0822787,4.86471664 15.5558525,4.30921451 16.2033236,4.16232727 L16.2033236,6.89221818 C15.5558525,6.74533097 15.0822787,6.18982883 15.0396872,5.52727273 Z M18.5305963,9.6 C18.4880048,10.2625561 18.014431,10.8180582 17.3669599,10.9649455 L17.3669599,8.23505455 C18.014431,8.38194176 18.4880048,8.9374439 18.5305963,9.6 Z" id="Shape"></path>
                            <path d="M2.3327781,16.8080808 L3.58950538,16.8080808 L3.58950538,18.7474747 C3.58950538,19.4615399 4.15216134,20.040404 4.84623265,20.040404 L6.10295992,20.040404 L6.10295992,21.979798 C6.10295992,22.6938631 6.66561589,23.2727273 7.35968719,23.2727273 L19.2985963,23.2727273 C19.6456319,23.2727273 19.9269599,22.9832952 19.9269599,22.6262626 C19.9269599,22.2692301 19.6456319,21.979798 19.2985963,21.979798 L7.35968719,21.979798 L7.35968719,20.040404 L19.2985963,20.040404 C19.6456319,20.040404 19.9269599,19.7509719 19.9269599,19.3939394 C19.9269599,19.0369069 19.6456319,18.7474747 19.2985963,18.7474747 L4.84623265,18.7474747 L4.84623265,16.8080808 L16.7851417,16.8080808 C20.9430239,16.8080808 24.3255054,13.037899 24.3255054,8.4040404 C24.3567183,5.57826954 23.0324128,2.91817075 20.7853046,1.29292929 L31.2375054,1.29292929 L31.2375054,9.6969697 C31.2375054,10.0540022 31.5188334,10.3434343 31.865869,10.3434343 C32.2129046,10.3434343 32.4942326,10.0540022 32.4942326,9.6969697 L32.4942326,1.29292929 C32.4942326,0.578864162 31.9315767,0 31.2375054,0 L7.98805083,0 C7.64101521,0 7.35968719,0.289432081 7.35968719,0.646464646 C7.35968719,1.00349721 7.64101521,1.29292929 7.98805083,1.29292929 L12.7849788,1.29292929 C10.5378707,2.91817075 9.21356521,5.57826954 9.2447781,8.4040404 C9.21356521,11.2298113 10.5378707,13.88991 12.7849788,15.5151515 L2.3327781,15.5151515 L2.3327781,1.29292929 L4.84623265,1.29292929 C5.1932683,1.29292929 5.47459629,1.00349721 5.47459629,0.646464646 C5.47459629,0.289432081 5.1932683,0 4.84623265,0 L2.3327781,0 C1.6387068,0 1.07605083,0.578864162 1.07605083,1.29292929 L1.07605083,15.5151515 C1.07605083,16.2292166 1.6387068,16.8080808 2.3327781,16.8080808 Z M10.5015054,8.4040404 C10.5015054,4.48323232 13.3203446,1.29292929 16.7851417,1.29292929 C20.2499388,1.29292929 23.0687781,4.48323232 23.0687781,8.4040404 C23.0687781,12.3248485 20.2499388,15.5151515 16.7851417,15.5151515 C13.3203446,15.5151515 10.5015054,12.3248485 10.5015054,8.4040404 Z" id="Shape"></path>
                            <path d="M6.31241447,2.32727273 L3.98514174,2.32727273 C3.66381243,2.32727273 3.40332356,2.5877616 3.40332356,2.90909091 L3.40332356,5.23636364 C3.40332356,5.55769295 3.66381243,5.81818182 3.98514174,5.81818182 C4.30647105,5.81818182 4.56695992,5.55769295 4.56695992,5.23636364 L4.56695992,3.49090909 L6.31241447,3.49090909 C6.63374378,3.49090909 6.89423265,3.23042022 6.89423265,2.90909091 C6.89423265,2.5877616 6.63374378,2.32727273 6.31241447,2.32727273 Z" id="Shape"></path>
                            <path d="M28.4215054,5.81818182 C28.7428347,5.81818182 29.0033236,5.55769295 29.0033236,5.23636364 L29.0033236,2.90909091 C29.0033236,2.5877616 28.7428347,2.32727273 28.4215054,2.32727273 L26.0942326,2.32727273 C25.7729034,2.32727273 25.5124145,2.5877616 25.5124145,2.90909091 C25.5124145,3.23042022 25.7729034,3.49090909 26.0942326,3.49090909 L27.8396872,3.49090909 L27.8396872,5.23636364 C27.8396872,5.55769295 28.1001761,5.81818182 28.4215054,5.81818182 Z" id="Shape"></path>
                            <path d="M3.98514174,10.4727273 C3.66381243,10.4727273 3.40332356,10.7332162 3.40332356,11.0545455 L3.40332356,13.3818182 C3.40332356,13.7031475 3.66381243,13.9636364 3.98514174,13.9636364 L6.31241447,13.9636364 C6.63374378,13.9636364 6.89423265,13.7031475 6.89423265,13.3818182 C6.89423265,13.0604889 6.63374378,12.8 6.31241447,12.8 L4.56695992,12.8 L4.56695992,11.0545455 C4.56695992,10.7332162 4.30647105,10.4727273 3.98514174,10.4727273 Z" id="Shape"></path>
                            <path d="M30.1669599,10.4727273 C25.025691,10.4727273 20.857869,14.6405492 20.857869,19.7818182 C20.857869,24.9230871 25.025691,29.0909091 30.1669599,29.0909091 C35.3082289,29.0909091 39.4760508,24.9230871 39.4760508,19.7818182 C39.4705536,14.642828 35.3059501,10.4782245 30.1669599,10.4727273 Z M30.1669599,27.761039 C25.760158,27.761039 22.1877391,24.1886201 22.1877391,19.7818182 C22.1877391,15.3750162 25.760158,11.8025974 30.1669599,11.8025974 C34.5737619,11.8025974 38.1461807,15.3750162 38.1461807,19.7818182 C38.1414166,24.1866453 34.571787,27.7562748 30.1669599,27.761039 Z" id="Shape"></path>
                            <path d="M30.1693479,20.1271521 L30.1693479,15.709602 C30.1693479,15.3879905 29.9083245,15.1272727 29.5863357,15.1272727 C29.264347,15.1272727 29.0033236,15.3879905 29.0033236,15.709602 L29.0033236,20.3682364 C29.0033236,20.5226671 29.0648025,20.6707607 29.1741461,20.7799432 L31.5061949,23.1092604 C31.7349566,23.329947 32.0985847,23.3267909 32.3234722,23.1021668 C32.5483597,22.8775428 32.5515195,22.5143405 32.3305741,22.2858468 L30.1693479,20.1271521 Z" id="Shape"></path>
                        </g>
                    </g>
                </g>
            </g>
        </g>
    </g>
</svg>