<?xml version="1.0" encoding="UTF-8"?>
<svg width="64px" height="64px" viewBox="0 0 64 64" version="1.1" xmlns="http://www.w3.org/2000/svg" xmlns:xlink="http://www.w3.org/1999/xlink">
    <!-- Generator: Sketch 62 (91390) - https://sketch.com -->
    <title>Icone</title>
    <desc>Created with Sketch.</desc>
    <g id="Page-1" stroke="none" stroke-width="1" fill="none" fill-rule="evenodd">
        <g id="Landing-Page" transform="translate(-801.000000, -6015.000000)">
            <g id="Bloc-8" transform="translate(0.000000, 5525.000000)">
                <g id="Optimisation-des-flux-de-trésorerie-Copy-3" transform="translate(735.000000, 470.000000)">
                    <g id="Icone" transform="translate(66.000000, 20.000000)">
                        <circle id="Oval" fill="#367DFF" cx="32" cy="32" r="32"></circle>
                        <g id="result" transform="translate(13.000000, 15.000000)" fill="#FFFFFF" fill-rule="nonzero">
                            <path d="M33.4270053,6.09550962 L27.5207553,0.190103365 C27.3990605,0.0684086538 27.2340101,0 27.0618851,0 L7.78544275,0 C6.71180333,0 5.83832737,0.873475962 5.83832737,1.94711538 L5.83832737,3.18444231 C2.64992593,4.43513942 0.386404293,7.54280048 0.386404293,11.1693678 C0.386404293,11.5277668 0.677043716,11.8184063 1.03544275,11.8184063 L8.95961824,11.8184063 C9.31801727,11.8184063 9.6086567,11.5277668 9.6086567,11.1693678 L9.6086567,3.24519231 C9.6086567,2.88679327 9.31801727,2.59615385 8.95961824,2.59615385 C8.33407497,2.59615385 7.72423843,2.66410817 7.13640429,2.79196875 L7.13640429,1.94711538 C7.13640429,1.58923558 7.42756295,1.29807692 7.78544275,1.29807692 L26.4128466,1.29807692 L26.4128466,5.25721154 C26.4128466,6.33085096 27.2863226,7.20432692 28.359962,7.20432692 L32.3190966,7.20432692 L32.3190966,31.2836538 C32.3190966,31.6415337 32.0279379,31.9326923 31.6700581,31.9326923 L7.78544275,31.9326923 C7.42756295,31.9326923 7.13640429,31.6415337 7.13640429,31.2836538 L7.13640429,25.7235361 C7.13640429,25.365137 6.84576487,25.0744976 6.48736583,25.0744976 C6.12896679,25.0744976 5.83832737,25.365137 5.83832737,25.7235361 L5.83832737,31.2836538 C5.83832737,32.3572933 6.71180333,33.2307692 7.78544275,33.2307692 L31.6700581,33.2307692 C32.7436976,33.2307692 33.6171735,32.3572933 33.6171735,31.2836538 L33.6171735,6.55444471 C33.6171735,6.38231971 33.5487649,6.21720433 33.4270053,6.09550962 Z M8.31051487,3.92298317 L8.31051487,10.5203293 L1.71316872,10.5203293 C2.023474,7.02538702 4.81563747,4.23328846 8.31051487,3.92298317 Z M28.359962,5.90625 C28.0020822,5.90625 27.7109235,5.61509135 27.7109235,5.25721154 L27.7109235,2.21581731 L31.4018754,5.90625 L28.359962,5.90625 Z" id="Shape"></path>
                            <path d="M6.35988122,22.3341538 C6.24548122,22.2196308 6.08671199,22.1538462 5.92486583,22.1538462 C5.76301968,22.1538462 5.60425045,22.2196308 5.48978891,22.3341538 C5.37532737,22.4486154 5.30948122,22.6073846 5.30948122,22.7692308 C5.30948122,22.9310769 5.37526583,23.0898462 5.48978891,23.2042462 C5.60425045,23.3187692 5.76301968,23.3846154 5.92486583,23.3846154 C6.08671199,23.3846154 6.24548122,23.3187692 6.35988122,23.2042462 C6.47440429,23.0898462 6.54025045,22.9310769 6.54025045,22.7692308 C6.54025045,22.6073846 6.47440429,22.4486154 6.35988122,22.3341538 Z" id="Path"></path>
                            <path d="M11.4632948,4.92307692 C11.1031314,4.92307692 10.8110613,5.21514707 10.8110613,5.5753104 L10.8110613,12.8861954 L3.50017623,12.8861954 C3.14001291,12.8861954 2.84794275,13.1782656 2.84794275,13.5384289 C2.84794275,18.2889715 6.71275223,22.1538462 11.4632948,22.1538462 C16.2138373,22.1538462 20.078712,18.2889715 20.078712,13.5384289 C20.078712,8.78788639 16.2138373,4.92307692 11.4632948,4.92307692 Z M12.1155282,6.25643782 C13.6424068,6.39197194 15.0356427,6.99920131 16.1486792,7.93072116 L12.1155282,11.9638069 L12.1155282,6.25643782 Z M11.4632948,20.8493792 C7.65183799,20.8493792 4.5121817,17.9176549 4.18130365,14.1906624 L11.4632948,14.1906624 C11.6433112,14.1906624 11.8062391,14.1177427 11.9242934,13.9998189 C11.9243586,13.9997537 11.9244238,13.9997537 11.9245543,13.9996232 L17.0712634,8.85297929 C18.133817,10.1226822 18.774245,11.7571793 18.774245,13.5384289 C18.774245,17.5696884 15.4945542,20.8493792 11.4632948,20.8493792 Z" id="Shape"></path>
                            <path d="M28.0444412,20.9230769 C27.0075751,20.9230769 26.1640167,21.7706931 26.1640167,22.8125469 C26.1640167,23.0736716 26.2170446,23.3225148 26.3127582,23.5489363 L22.7015282,27.1775374 C22.4533748,27.0560444 22.1748213,26.9877086 21.8807229,26.9877086 C21.593582,26.9877086 21.3214219,27.0529583 21.0777816,27.1690347 L18.6797388,24.7594567 C18.7628535,24.5463245 18.8089866,24.3146125 18.8089866,24.0721305 C18.8089866,23.0302768 17.9654282,22.1826606 16.928562,22.1826606 C15.8916959,22.1826606 15.0481375,23.0302768 15.0481375,24.0721305 C15.0481375,24.3544173 15.1105049,24.6222182 15.2214499,24.8629997 L12.9213773,27.1741363 C12.6763579,27.0563593 12.402192,26.9902909 12.1129827,26.9902909 C11.0761166,26.9902909 10.2325581,27.8379071 10.2325581,28.8797608 C10.2325581,29.9216146 11.0761166,30.7692308 12.1129827,30.7692308 C13.1498488,30.7692308 13.9934073,29.9216146 13.9934073,28.8797608 C13.9934073,28.5877118 13.927091,28.3109674 13.808875,28.0638877 L16.0960981,25.7656624 C16.3472601,25.8908713 16.6298253,25.9616005 16.9286874,25.9616005 C17.2662236,25.9616005 17.5829498,25.8713468 17.857053,25.7142688 L20.1874632,28.0558889 C20.0676175,28.3043542 20.0002983,28.5829881 20.0002983,28.8771785 C20.0002983,29.9190323 20.8438567,30.7666485 21.8807229,30.7666485 C22.917589,30.7666485 23.7611474,29.9190323 23.7611474,28.8771785 C23.7611474,28.5901051 23.6968369,28.3178954 23.5823191,28.0740279 L27.1598268,24.4793113 C27.4236504,24.6212735 27.7248317,24.7020168 28.0444412,24.7020168 C29.0813074,24.7020168 29.9248658,23.8544006 29.9248658,22.8125469 C29.9248658,21.7706931 29.0813074,20.9230769 28.0444412,20.9230769 Z M12.11292,29.5096471 C11.767298,29.5096471 11.4861118,29.2271084 11.4861118,28.8798238 C11.4861118,28.5325392 11.767298,28.2500005 12.11292,28.2500005 C12.281218,28.2500005 12.4338458,28.3173286 12.546546,28.4261621 C12.5490532,28.4288073 12.551247,28.4316415 12.5538169,28.4342238 C12.5568256,28.437247 12.560085,28.4397663 12.5631564,28.4426634 C12.672221,28.5560316 12.7397282,28.7100864 12.7397282,28.8798238 C12.7397282,29.2270454 12.4585421,29.5096471 12.11292,29.5096471 Z M16.928562,24.7019538 C16.58294,24.7019538 16.3017538,24.4194151 16.3017538,24.0721305 C16.3017538,23.7248459 16.58294,23.4423072 16.928562,23.4423072 C17.2741841,23.4423072 17.5553702,23.7248459 17.5553702,24.0721305 C17.5553702,24.4194151 17.2741841,24.7019538 16.928562,24.7019538 Z M21.8805975,29.5070019 C21.5349755,29.5070019 21.2537893,29.2244631 21.2537893,28.8771785 C21.2537893,28.529894 21.5349755,28.2473552 21.8805975,28.2473552 C22.2262195,28.2473552 22.5074057,28.529894 22.5074057,28.8771785 C22.5074057,29.2244631 22.2262195,29.5070019 21.8805975,29.5070019 Z M28.0443159,23.4423072 C27.6986938,23.4423072 27.4175077,23.1597685 27.4175077,22.8124839 C27.4175077,22.4651993 27.6987565,22.1826606 28.0443159,22.1826606 C28.3899379,22.1826606 28.6711241,22.4651993 28.6711241,22.8124839 C28.6711241,23.1597685 28.3899379,23.4423072 28.0443159,23.4423072 Z" id="Shape"></path>
                            <path d="M25.5561162,16 L21.9859232,16 C21.6123919,16 21.3094812,16.2755692 21.3094812,16.6153846 C21.3094812,16.9552 21.6123243,17.2307692 21.9859232,17.2307692 L25.5561162,17.2307692 C25.9296474,17.2307692 26.2325581,16.9552 26.2325581,16.6153846 C26.2325581,16.2755692 25.9296474,16 25.5561162,16 Z" id="Path"></path>
                            <path d="M28.5137274,16.1803077 C28.3993274,16.0658462 28.2405581,16 28.078712,16 C27.9168658,16 27.7580966,16.0657846 27.6436351,16.1803077 C27.5291735,16.2947692 27.4633274,16.4535385 27.4633274,16.6153846 C27.4633274,16.7772308 27.529112,16.936 27.6436351,17.0504 C27.7580966,17.1648615 27.9162504,17.2307692 28.078712,17.2307692 C28.2405581,17.2307692 28.3993274,17.1649231 28.5137274,17.0504 C28.6281889,16.936 28.6940966,16.7772308 28.6940966,16.6153846 C28.6940966,16.4535385 28.6282504,16.2947692 28.5137274,16.1803077 Z" id="Path"></path>
                            <path d="M30.4629951,8.61538462 L22.0021212,8.61538462 C21.6196454,8.61538462 21.3094812,8.89095385 21.3094812,9.23076923 C21.3094812,9.57058462 21.6195761,9.84615385 22.0021212,9.84615385 L30.4629951,9.84615385 C30.8454709,9.84615385 31.1556351,9.57058462 31.1556351,9.23076923 C31.1556351,8.89095385 30.8454709,8.61538462 30.4629951,8.61538462 Z" id="Path"></path>
                            <path d="M30.4629951,12.3076923 L22.0021212,12.3076923 C21.6196454,12.3076923 21.3094812,12.5832615 21.3094812,12.9230769 C21.3094812,13.2628923 21.6195761,13.5384615 22.0021212,13.5384615 L30.4629951,13.5384615 C30.8454709,13.5384615 31.1556351,13.2628923 31.1556351,12.9230769 C31.1556351,12.5832615 30.8454709,12.3076923 30.4629951,12.3076923 Z" id="Path"></path>
                        </g>
                    </g>
                </g>
            </g>
        </g>
    </g>
</svg>