<?xml version="1.0" encoding="UTF-8"?>
<svg width="64px" height="64px" viewBox="0 0 64 64" version="1.1" xmlns="http://www.w3.org/2000/svg" xmlns:xlink="http://www.w3.org/1999/xlink">
    <!-- Generator: Sketch 62 (91390) - https://sketch.com -->
    <title>Icone</title>
    <desc>Created with Sketch.</desc>
    <g id="Page-1" stroke="none" stroke-width="1" fill="none" fill-rule="evenodd">
        <g id="Landing-Page" transform="translate(-349.000000, -6015.000000)">
            <g id="Bloc-8" transform="translate(0.000000, 5525.000000)">
                <g id="Optimisation-des-flux-de-trésorerie-Copy" transform="translate(283.000000, 470.000000)">
                    <g id="Icone" transform="translate(66.000000, 20.000000)">
                        <circle id="Oval" fill="#367DFF" cx="32" cy="32" r="32"></circle>
                        <g id="laptop" transform="translate(13.000000, 18.000000)" fill="#FFFFFF" fill-rule="nonzero">
                            <path d="M37.6434442,25.9636228 C37.6430766,25.9581661 37.6431501,25.9527822 37.6426354,25.9473256 C37.6406502,25.9257172 37.6374886,25.9045454 37.6330036,25.8838102 C37.6325624,25.881773 37.6319007,25.8797359 37.631386,25.8776987 C37.627048,25.8586368 37.6216806,25.8400114 37.6153574,25.8218226 C37.6136663,25.816948 37.6118281,25.8122189 37.60999,25.807417 C37.6038138,25.7909016 37.5968289,25.7748226 37.5891087,25.7591802 C37.5877852,25.7564155 37.5869029,25.7535781 37.5855059,25.7508134 L34.6362391,19.9945549 L34.6362391,1.05633505 C34.6362391,0.473855651 34.1573655,0 33.568718,0 L4.0763438,0 C3.48769625,0 3.00882273,0.473855651 3.00882273,1.05633505 L3.00882273,19.9944094 L0.0596294226,25.7507406 C0.0582324324,25.7535053 0.0573501229,25.7563428 0.0560266585,25.7591075 C0.0483064496,25.7747499 0.0413950246,25.7908288 0.0351453317,25.8072715 C0.0333071867,25.8120734 0.0314690418,25.8168752 0.0297779484,25.8217498 C0.0235282555,25.8400114 0.0180873464,25.8587096 0.0137493243,25.8777715 C0.0133081695,25.8797359 0.0126464373,25.8817002 0.0122052826,25.8836646 C0.00772020885,25.9044727 0.00455859951,25.9256445 0.00257340295,25.9472528 C0.00205872236,25.9526367 0.00205872236,25.9580934 0.00176461916,25.9634773 C0.00102936118,25.9748271 0,25.9860314 0,25.9975268 L0,27.3817702 C0,28.0736009 0.568722052,28.6363636 1.26787887,28.6363636 L36.37733,28.6363636 C37.0764868,28.6363636 37.6452088,28.0736009 37.6452088,27.3817702 L37.6452088,25.9975268 C37.6452088,25.9860314 37.6441795,25.9748271 37.6434442,25.9636228 Z M4.11178323,1.09147589 L33.5334256,1.09147589 L33.5334256,19.5792673 L4.11178323,19.5792673 L4.11178323,1.09147589 Z M3.89899957,20.6705249 L33.7461357,20.6705249 L36.1958683,25.4517888 L24.0802872,25.4517888 L23.4721553,23.2699284 C23.3483379,22.8257569 22.9367405,22.5155281 22.4711016,22.5155281 L15.1739602,22.5155281 C14.7083213,22.5155281 14.2966504,22.8257569 14.1729064,23.2698556 L13.5647746,25.4517888 L1.44926701,25.4517888 L3.89899957,20.6705249 Z M22.9362258,25.4518616 L14.708983,25.4518616 L15.223149,23.6069312 L22.4220599,23.6069312 L22.9362258,25.4518616 Z M36.5423219,27.3816975 C36.5423219,27.4716959 36.4682814,27.5449605 36.37733,27.5449605 L1.26787887,27.5449605 C1.17692746,27.5449605 1.10288698,27.4716959 1.10288698,27.3816975 L1.10288698,26.5431192 L36.5423219,26.5431192 L36.5423219,27.3816975 Z" id="Shape"></path>
                            <path d="M32.364304,11.4545455 C32.0465762,11.4545455 31.789127,11.6886457 31.789127,11.9775575 L31.789127,17.2812486 L5.85600517,17.2812486 L5.85600517,11.9775575 C5.85600517,11.6886457 5.59855593,11.4545455 5.28082814,11.4545455 C4.96310034,11.4545455 4.70565111,11.6886457 4.70565111,11.9775575 L4.70565111,17.5071201 C4.70565111,17.9593512 5.11019228,18.3272727 5.60760538,18.3272727 L32.0376035,18.3272727 C32.5349399,18.3272727 32.9395577,17.9594209 32.9395577,17.5071201 L32.9395577,11.9775575 C32.9395577,11.6887851 32.6820318,11.4545455 32.364304,11.4545455 Z" id="Path"></path>
                            <path d="M32.037601,2.29090909 L5.60760783,2.29090909 C5.11027007,2.29090909 4.70565111,2.65876091 4.70565111,3.11106175 L4.70565111,8.64062429 C4.70565111,8.92953616 4.96310104,9.16363636 5.2808297,9.16363636 C5.59855835,9.16363636 5.85600829,8.92953616 5.85600829,8.64062429 L5.85600829,3.33693323 L31.7892006,3.33693323 L31.7892006,8.64062429 C31.7892006,8.92953616 32.0466505,9.16363636 32.3643791,9.16363636 C32.6821078,9.16363636 32.9395577,8.92953616 32.9395577,8.64062429 L32.9395577,3.11106175 C32.9395577,2.65869118 32.5350155,2.29090909 32.037601,2.29090909 Z" id="Path"></path>
                        </g>
                    </g>
                </g>
            </g>
        </g>
    </g>
</svg>