<?xml version="1.0" encoding="UTF-8"?>
<svg width="64px" height="64px" viewBox="0 0 64 64" version="1.1" xmlns="http://www.w3.org/2000/svg" xmlns:xlink="http://www.w3.org/1999/xlink">
    <!-- Generator: Sketch 62 (91390) - https://sketch.com -->
    <title>Icones</title>
    <desc>Created with Sketch.</desc>
    <g id="Page-1" stroke="none" stroke-width="1" fill="none" fill-rule="evenodd">
        <g id="Landing-Page" transform="translate(-575.000000, -6015.000000)">
            <g id="Bloc-8" transform="translate(0.000000, 5525.000000)">
                <g id="Optimisation-des-flux-de-trésorerie-Copy-2" transform="translate(509.000000, 470.000000)">
                    <g id="Icones" transform="translate(66.000000, 20.000000)">
                        <circle id="Oval" fill="#367DFF" cx="32" cy="32" r="32"></circle>
                        <g id="search-(3)" transform="translate(15.000000, 16.000000)" fill="#FFFFFF" fill-rule="nonzero">
                            <path d="M6.09018568,11.0769231 C5.75052217,11.0769231 5.47480106,11.3524577 5.47480106,11.6921875 C5.47480106,12.0319173 5.75052217,12.3076923 6.09018568,12.3076923 C6.42984912,12.3076923 6.70557029,12.0319173 6.70557029,11.6921875 C6.70557029,11.3524577 6.42984912,11.0769231 6.09018568,11.0769231 Z" id="Path"></path>
                            <path d="M23.7343603,18.7635982 C23.6174164,18.6464106 23.4582359,18.5804925 23.2924636,18.5804925 C23.286116,18.5817133 23.0458805,18.5682855 22.850567,18.7635982 L22.4089146,19.205249 L20.9728725,17.7694566 C24.1418329,13.3273137 23.6598971,7.19962232 19.7572905,3.29727486 C15.3612735,-1.09872539 8.24551691,-1.09945783 3.84901157,3.29727486 C-0.547005446,7.69303104 -0.547737887,14.8090046 3.84901157,19.2054931 C7.74185245,23.0985633 13.8671258,23.5980754 18.3210044,20.4210705 L19.7570464,21.857107 L19.3153939,22.2987578 C19.0714963,22.5426546 19.0712521,22.938651 19.3153939,23.1827919 L27.2167988,31.0834342 C28.4377519,32.305115 30.4140797,32.3058474 31.6352769,31.0836783 C32.8569624,29.862974 32.8574507,27.8864096 31.6352769,26.665217 L23.7343603,18.7635982 Z M20.6408397,20.9733171 L19.3026986,19.635181 C19.4582169,19.4957767 19.6103172,19.3527101 19.7572905,19.2054931 C19.9045081,19.0585204 20.0475752,18.9064206 20.1869801,18.751147 L21.5251213,20.0892831 L20.6408397,20.9733171 Z M4.73280491,18.3217033 C0.825071408,14.4142288 0.824583155,8.08902748 4.73280491,4.18106482 C8.64029423,0.273346227 14.9655197,0.272857976 18.8734973,4.18106482 C22.7724417,8.07975016 22.7922171,14.4034866 18.8734973,18.3217033 C14.9105878,22.2850859 8.58707129,22.1761991 4.73280491,18.3217033 Z M23.2924636,20.0892831 L25.0598061,21.8568629 L22.4086704,24.5079884 L20.6410839,22.7406527 L23.2924636,20.0892831 Z M30.7514836,30.1998884 C30.0190582,30.9330434 28.8337499,30.9332875 28.1008362,30.1998884 L23.2924636,25.3917783 L25.9435994,22.7406527 L30.7517278,27.5492511 C31.4846414,28.2814295 31.4853738,29.4667334 30.7514836,30.1998884 L30.7514836,30.1998884 Z" id="Shape"></path>
                            <path d="M17.7237457,4.98588303 C14.3566697,1.62113193 8.90185737,1.61920908 5.53333823,4.98540228 C2.17323739,8.34390414 2.17323739,13.8086502 5.53333823,17.1673924 C8.90233845,20.5338259 14.3540239,20.5340663 17.7232646,17.1673924 C21.0840871,13.8086502 21.0843276,8.34414448 17.7237457,4.98588303 Z M16.8525728,16.2970614 C13.9650989,19.1825415 9.29222559,19.1832626 6.40403008,16.2973017 C3.52401237,13.4183112 3.52401237,8.73424315 6.40403008,5.85525259 C9.2900609,2.97145495 13.966061,2.97073387 16.8530539,5.85597367 C19.7335526,8.73448349 19.7333121,13.4183112 16.8525728,16.2970614 Z" id="Shape"></path>
                            <path d="M11.0434683,4.92307692 C9.47948635,4.92307692 8.01013879,5.55582799 6.90607081,6.70462064 C6.26603142,7.37017401 5.79491673,8.15647784 5.50598467,9.04213919 C5.40220688,9.36017866 5.56587409,9.70579098 5.87195009,9.81370568 C6.17848322,9.92185812 6.51038936,9.75071582 6.61416715,9.43315178 C6.84480996,8.72600131 7.22151886,8.09752883 7.73355037,7.56484839 C8.61680472,6.64614705 9.79219131,6.1400888 11.0434683,6.1400888 C11.3666882,6.1400888 11.6286472,5.86768729 11.6286472,5.53158286 C11.6286472,5.19547838 11.3666882,4.92307692 11.0434683,4.92307692 Z" id="Path"></path>
                        </g>
                    </g>
                </g>
            </g>
        </g>
    </g>
</svg>