<?xml version="1.0" encoding="UTF-8"?>
<svg width="629px" height="363px" viewBox="0 0 629 363" version="1.1" xmlns="http://www.w3.org/2000/svg" xmlns:xlink="http://www.w3.org/1999/xlink">
    <!-- Generator: Sketch 59 (86127) - https://sketch.com -->
    <title>Artboard</title>
    <desc>Created with Sketch.</desc>
    <g id="Artboard" stroke="none" stroke-width="1" fill="none" fill-rule="evenodd">
        <g id="bg-elements-9">
            <polygon id="Path" stroke="#E7EAF3" stroke-width="2" opacity="0.05" points="85.752426 6.88550296 5.88059172 163.800533 116.569704 166.443077 168.341243 98.7046154"></polygon>
            <polygon id="Path" stroke="#E7EAF3" stroke-width="2" opacity="0.05" points="5.88059172 163.800533 25.8671598 270.358343 117.574615 248.883018 116.569704 166.443077"></polygon>
            <polygon id="Path" stroke="#E7EAF3" stroke-width="2" opacity="0.05" points="25.8671598 270.358343 19.0188757 356.07355 142.660178 358.269467 117.574615 248.883018"></polygon>
            <polygon id="Path" stroke="#E7EAF3" stroke-width="2" opacity="0.05" points="142.660178 358.269467 183.11716 292.466391 235.409763 283.124438 265.705976 344.237929"></polygon>
            <polyline id="Path" stroke="#E7EAF3" stroke-width="2" opacity="0.05" points="235.409763 283.124438 289.712189 216.204793 285.059822 130.638462 168.341243 98.7046154 241.550888 35.3952071 405.649172 17.9023077 285.059822 130.638462 241.550888 35.3952071"></polyline>
            <polyline id="Path" stroke="#E7EAF3" stroke-width="2" opacity="0.05" points="550.468047 56.4239053 486.600355 150.327278 464.566746 239.801598 516.673254 283.124438 624.198757 229.380296 550.468047 56.4239053 405.649172 17.9023077 486.600355 150.327278"></polyline>
            <polyline id="Path" stroke="#E7EAF3" stroke-width="2" opacity="0.05" points="285.059822 130.638462 400.661834 249.813491 373.119822 308.768284 516.673254 283.124438 464.566746 239.801598 400.661834 249.813491"></polyline>
            <circle id="Oval" fill-opacity="0.99" fill="#7E72E2" fill-rule="nonzero" cx="285.059822" cy="130.638462" r="10.7190533"></circle>
            <circle id="Oval" fill-opacity="0.99" fill="#7E72E2" fill-rule="nonzero" cx="241.550888" cy="35.3952071" r="6.88550296"></circle>
            <circle id="Oval" fill-opacity="0.99" fill="#7E72E2" fill-rule="nonzero" cx="168.341243" cy="98.7046154" r="6.88550296"></circle>
            <circle id="Oval" fill-opacity="0.99" fill="#7E72E2" fill-rule="nonzero" cx="116.569704" cy="166.443077" r="6.88550296"></circle>
            <circle id="Oval" fill-opacity="0.99" fill="#7E72E2" fill-rule="nonzero" cx="85.752426" cy="6.88550296" r="6.88550296"></circle>
            <circle id="Oval" fill-opacity="0.99" fill="#7E72E2" fill-rule="nonzero" cx="5.88059172" cy="163.800533" r="5.88059172"></circle>
            <circle id="Oval" fill-opacity="0.99" fill="#7E72E2" fill-rule="nonzero" cx="117.574615" cy="248.883018" r="3.72189349"></circle>
            <circle id="Oval" fill-opacity="0.99" fill="#7E72E2" fill-rule="nonzero" cx="25.8671598" cy="270.358343" r="3.2008284"></circle>
            <circle id="Oval" fill-opacity="0.99" fill="#7E72E2" fill-rule="nonzero" cx="19.0188757" cy="356.07355" r="4.35461538"></circle>
            <circle id="Oval" fill-opacity="0.99" fill="#7E72E2" fill-rule="nonzero" cx="142.660178" cy="358.269467" r="4.35461538"></circle>
            <circle id="Oval" fill-opacity="0.99" fill="#7E72E2" fill-rule="nonzero" cx="183.11716" cy="292.466391" r="6.95994083"></circle>
            <circle id="Oval" fill-opacity="0.99" fill="#7E72E2" fill-rule="nonzero" cx="235.409763" cy="283.124438" r="4.61514793"></circle>
            <circle id="Oval" fill-opacity="0.99" fill="#7E72E2" fill-rule="nonzero" cx="265.705976" cy="344.237929" r="4.61514793"></circle>
            <circle id="Oval" fill-opacity="0.99" fill="#7E72E2" fill-rule="nonzero" cx="289.712189" cy="216.204793" r="4.61514793"></circle>
            <circle id="Oval" fill-opacity="0.99" fill="#7E72E2" fill-rule="nonzero" cx="400.661834" cy="249.813491" r="5.84337278"></circle>
            <circle id="Oval" fill-opacity="0.99" fill="#7E72E2" fill-rule="nonzero" cx="373.119822" cy="307.614497" r="3.79633136"></circle>
            <circle id="Oval" fill-opacity="0.99" fill="#7E72E2" fill-rule="nonzero" cx="516.673254" cy="283.124438" r="6.43887574"></circle>
            <circle id="Oval" fill-opacity="0.99" fill="#7E72E2" fill-rule="nonzero" cx="464.566746" cy="239.801598" r="4.76402367"></circle>
            <circle id="Oval" fill-opacity="0.99" fill="#7E72E2" fill-rule="nonzero" cx="486.600355" cy="150.327278" r="6.58775148"></circle>
            <circle id="Oval" fill-opacity="0.99" fill="#7E72E2" fill-rule="nonzero" cx="550.468047" cy="56.4239053" r="6.58775148"></circle>
            <circle id="Oval" fill-opacity="0.99" fill="#7E72E2" fill-rule="nonzero" cx="405.649172" cy="17.9023077" r="4.65236686"></circle>
            <circle id="Oval" fill-opacity="0.99" fill="#7E72E2" fill-rule="nonzero" cx="624.198757" cy="229.380296" r="4.76402367"></circle>
        </g>
    </g>
</svg>