<?xml version="1.0" encoding="UTF-8"?>
<svg width="390px" height="362px" viewBox="0 0 390 362" version="1.1" xmlns="http://www.w3.org/2000/svg" xmlns:xlink="http://www.w3.org/1999/xlink">
    <!-- Generator: Sketch 62 (91390) - https://sketch.com -->
    <title>Garantir</title>
    <desc>Created with Sketch.</desc>
    <defs>
        <path d="M10,0 L274.441898,0 C278.922843,-2.25132122e-06 282.85676,2.98081084 284.069005,7.29466476 C301.356335,68.8127295 310,114.381175 310,144 C310,173.569952 301.384837,217.190826 284.15451,274.86262 C282.889155,279.097914 278.993273,282 274.572997,282 L10,282 C4.4771525,282 6.76353751e-16,277.522847 0,272 L0,10 C-6.76353751e-16,4.4771525 4.4771525,1.01453063e-15 10,0 Z" id="path-1"></path>
        <filter x="-19.4%" y="-21.3%" width="138.7%" height="142.6%" filterUnits="objectBoundingBox" id="filter-2">
            <feMorphology radius="5" operator="dilate" in="SourceAlpha" result="shadowSpreadOuter1"></feMorphology>
            <feOffset dx="0" dy="0" in="shadowSpreadOuter1" result="shadowOffsetOuter1"></feOffset>
            <feGaussianBlur stdDeviation="15" in="shadowOffsetOuter1" result="shadowBlurOuter1"></feGaussianBlur>
            <feColorMatrix values="0 0 0 0 0.956862745   0 0 0 0 0.964705882   0 0 0 0 0.980392157  0 0 0 1 0" type="matrix" in="shadowBlurOuter1"></feColorMatrix>
        </filter>
    </defs>
    <g id="Page-1" stroke="none" stroke-width="1" fill="none" fill-rule="evenodd">
        <g id="Bloc-4" transform="translate(-961.000000, -231.000000)">
            <g id="Garantir" transform="translate(1001.000000, 271.000000)">
                <g id="Rectangle">
                    <use fill="black" fill-opacity="1" filter="url(#filter-2)" xlink:href="#path-1"></use>
                    <use fill="#FFFFFF" fill-rule="evenodd" xlink:href="#path-1"></use>
                </g>
                <circle id="Oval" fill="#367DFF" cx="92" cy="216" r="29"></circle>
                <polygon id="" fill="#FFFFFF" fill-rule="nonzero" points="93 226.52 103.02 216.5 93 206.48 91.23 208.25 98.22 215.27 82.98 215.27 82.98 217.73 98.22 217.73 91.23 224.75"></polygon>
                <path d="M71.624,57.132 C75.738,57.132 78.73,54.118 79.192,50.576 L79.192,48.618 L70.766,48.618 L70.766,50.62 L76.508,50.62 C76.134,53.194 74.396,54.866 71.624,54.866 C68.588,54.866 66.388,52.688 66.388,49.322 C66.388,45.956 68.588,43.8 71.624,43.8 C73.45,43.8 74.902,44.57 75.716,46.11 L78.73,46.11 C77.564,43.118 74.814,41.512 71.624,41.512 C67.312,41.512 63.814,44.746 63.814,49.322 C63.814,53.92 67.312,57.132 71.624,57.132 Z M86.496,57.198 C88.52,57.198 89.972,56.23 90.742,55.196 L90.742,57 L93.272,57 L93.272,44.878 L90.742,44.878 L90.742,46.638 C89.994,45.648 88.586,44.68 86.54,44.68 C83.35,44.68 80.82,47.144 80.82,50.884 C80.82,54.624 83.35,57.198 86.496,57.198 Z M87.068,55.02 C85.198,55.02 83.394,53.502 83.394,50.884 C83.394,48.266 85.198,46.858 87.068,46.858 C88.96,46.858 90.742,48.332 90.742,50.928 C90.742,53.546 88.96,55.02 87.068,55.02 Z M99.08,57 L99.08,50.62 C99.08,48.046 100.224,47.276 102.072,47.276 L102.71,47.276 L102.71,44.68 C100.994,44.68 99.784,45.428 99.08,46.638 L99.08,44.878 L96.572,44.878 L96.572,57 L99.08,57 Z M109.86,57.198 C111.884,57.198 113.336,56.23 114.106,55.196 L114.106,57 L116.636,57 L116.636,44.878 L114.106,44.878 L114.106,46.638 C113.358,45.648 111.95,44.68 109.904,44.68 C106.714,44.68 104.184,47.144 104.184,50.884 C104.184,54.624 106.714,57.198 109.86,57.198 Z M110.432,55.02 C108.562,55.02 106.758,53.502 106.758,50.884 C106.758,48.266 108.562,46.858 110.432,46.858 C112.324,46.858 114.106,48.332 114.106,50.928 C114.106,53.546 112.324,55.02 110.432,55.02 Z M122.444,57 L122.444,50.224 C122.444,48.002 123.654,46.858 125.502,46.858 C127.328,46.858 128.538,48.002 128.538,50.224 L128.538,57 L131.024,57 L131.024,49.85 C131.024,46.462 128.89,44.68 126.052,44.68 C124.6,44.68 123.258,45.274 122.444,46.264 L122.444,44.878 L119.936,44.878 L119.936,57 L122.444,57 Z M140.088,57 L140.088,54.91 L138.548,54.91 C137.492,54.91 137.14,54.536 137.14,53.634 L137.14,46.924 L140.088,46.924 L140.088,44.878 L137.14,44.878 L137.14,41.864 L134.61,41.864 L134.61,44.878 L133.18,44.878 L133.18,46.924 L134.61,46.924 L134.61,53.634 C134.61,56.098 135.952,57 138.108,57 L140.088,57 Z M143.674,43.272 C144.554,43.272 145.258,42.568 145.258,41.666 C145.258,40.764 144.554,40.06 143.674,40.06 C142.772,40.06 142.068,40.764 142.068,41.666 C142.068,42.568 142.772,43.272 143.674,43.272 Z M144.906,57 L144.906,44.878 L142.398,44.878 L142.398,57 L144.906,57 Z M150.714,57 L150.714,50.62 C150.714,48.046 151.858,47.276 153.706,47.276 L154.344,47.276 L154.344,44.68 C152.628,44.68 151.418,45.428 150.714,46.638 L150.714,44.878 L148.206,44.878 L148.206,57 L150.714,57 Z M167.258,57.198 C169.238,57.198 170.69,56.274 171.46,55.174 L171.46,57 L173.99,57 L173.99,40.72 L171.46,40.72 L171.46,46.572 C170.536,45.428 168.864,44.68 167.28,44.68 C164.068,44.68 161.538,47.144 161.538,50.884 C161.538,54.624 164.068,57.198 167.258,57.198 Z M167.786,55.02 C165.916,55.02 164.112,53.502 164.112,50.884 C164.112,48.266 165.916,46.858 167.786,46.858 C169.678,46.858 171.46,48.332 171.46,50.928 C171.46,53.546 169.678,55.02 167.786,55.02 Z M182.504,57.198 C185.474,57.198 187.388,55.504 188.07,53.392 L185.364,53.392 C184.902,54.338 184.044,55.086 182.504,55.086 C180.656,55.086 179.226,53.876 179.05,51.874 L188.312,51.874 C188.378,51.456 188.4,51.06 188.4,50.642 C188.4,47.078 185.958,44.68 182.504,44.68 C178.918,44.68 176.454,47.122 176.454,50.928 C176.454,54.734 179.028,57.198 182.504,57.198 Z M185.782,49.85 L179.072,49.85 C179.336,47.936 180.7,46.792 182.394,46.792 C184.264,46.792 185.738,47.98 185.782,49.85 Z M67.158,93.764 L67.158,86.24 C67.95,87.186 69.38,88.198 71.382,88.198 C74.572,88.198 77.08,85.624 77.08,81.884 C77.08,78.144 74.572,75.68 71.382,75.68 C69.402,75.68 67.928,76.648 67.158,77.66 L67.158,75.878 L64.65,75.878 L64.65,93.764 L67.158,93.764 Z M70.832,86.02 C68.962,86.02 67.158,84.546 67.158,81.928 C67.158,79.332 68.962,77.858 70.832,77.858 C72.724,77.858 74.528,79.266 74.528,81.884 C74.528,84.502 72.724,86.02 70.832,86.02 Z M84.824,88.198 C88.3,88.198 91.116,85.734 91.116,81.928 C91.116,78.122 88.388,75.68 84.934,75.68 C81.48,75.68 78.752,78.122 78.752,81.928 C78.752,85.734 81.37,88.198 84.824,88.198 Z M84.824,86.02 C82.932,86.02 81.304,84.678 81.304,81.928 C81.304,79.178 82.998,77.858 84.89,77.858 C86.76,77.858 88.542,79.178 88.542,81.928 C88.542,84.678 86.694,86.02 84.824,86.02 Z M98.486,88.176 C99.916,88.176 101.28,87.582 102.072,86.548 L102.072,88 L104.58,88 L104.58,75.878 L102.072,75.878 L102.072,82.632 C102.072,84.854 100.862,85.998 99.014,85.998 C97.188,85.998 95.978,84.854 95.978,82.632 L95.978,75.878 L93.492,75.878 L93.492,83.006 C93.492,86.394 95.648,88.176 98.486,88.176 Z M114.04,88 L118.66,75.878 L115.998,75.878 L112.566,85.756 L109.134,75.878 L106.45,75.878 L111.048,88 L114.04,88 Z M125.81,88.198 C129.286,88.198 132.102,85.734 132.102,81.928 C132.102,78.122 129.374,75.68 125.92,75.68 C122.466,75.68 119.738,78.122 119.738,81.928 C119.738,85.734 122.356,88.198 125.81,88.198 Z M125.81,86.02 C123.918,86.02 122.29,84.678 122.29,81.928 C122.29,79.178 123.984,77.858 125.876,77.858 C127.746,77.858 129.528,79.178 129.528,81.928 C129.528,84.678 127.68,86.02 125.81,86.02 Z M135.864,74.272 C136.744,74.272 137.448,73.568 137.448,72.666 C137.448,71.764 136.744,71.06 135.864,71.06 C134.962,71.06 134.258,71.764 134.258,72.666 C134.258,73.568 134.962,74.272 135.864,74.272 Z M137.096,88 L137.096,75.878 L134.588,75.878 L134.588,88 L137.096,88 Z M142.904,88 L142.904,81.62 C142.904,79.046 144.048,78.276 145.896,78.276 L146.534,78.276 L146.534,75.68 C144.818,75.68 143.608,76.428 142.904,77.638 L142.904,75.878 L140.396,75.878 L140.396,88 L142.904,88 Z M155.84,74.272 C156.72,74.272 157.424,73.568 157.424,72.666 C157.424,71.764 156.72,71.06 155.84,71.06 C154.938,71.06 154.234,71.764 154.234,72.666 C154.234,73.568 154.938,74.272 155.84,74.272 Z M157.072,88 L157.072,75.878 L154.564,75.878 L154.564,88 L157.072,88 Z M162.88,88 L162.88,81.224 C162.88,79.002 164.09,77.858 165.938,77.858 C167.764,77.858 168.974,79.002 168.974,81.224 L168.974,88 L171.46,88 L171.46,80.85 C171.46,77.462 169.326,75.68 166.488,75.68 C165.036,75.68 163.694,76.274 162.88,77.264 L162.88,75.878 L160.372,75.878 L160.372,88 L162.88,88 Z M180.81,88 L185.43,75.878 L182.768,75.878 L179.336,85.756 L175.904,75.878 L173.22,75.878 L177.818,88 L180.81,88 Z M192.536,88.198 C195.506,88.198 197.42,86.504 198.102,84.392 L195.396,84.392 C194.934,85.338 194.076,86.086 192.536,86.086 C190.688,86.086 189.258,84.876 189.082,82.874 L198.344,82.874 C198.41,82.456 198.432,82.06 198.432,81.642 C198.432,78.078 195.99,75.68 192.536,75.68 C188.95,75.68 186.486,78.122 186.486,81.928 C186.486,85.734 189.06,88.198 192.536,88.198 Z M195.814,80.85 L189.104,80.85 C189.368,78.936 190.732,77.792 192.426,77.792 C194.296,77.792 195.77,78.98 195.814,80.85 Z M205.296,88.198 C208.156,88.198 209.938,86.658 209.938,84.612 C209.806,80.234 202.964,81.598 202.964,79.156 C202.964,78.342 203.668,77.792 205.01,77.792 C206.374,77.792 207.188,78.518 207.276,79.574 L209.784,79.574 C209.652,77.154 207.848,75.68 205.098,75.68 C202.238,75.68 200.434,77.242 200.434,79.178 C200.434,83.622 207.474,82.258 207.474,84.634 C207.474,85.47 206.704,86.086 205.252,86.086 C203.866,86.086 202.92,85.272 202.832,84.282 L200.236,84.282 C200.346,86.482 202.392,88.198 205.296,88.198 Z M218.518,88 L218.518,85.91 L216.978,85.91 C215.922,85.91 215.57,85.536 215.57,84.634 L215.57,77.924 L218.518,77.924 L218.518,75.878 L215.57,75.878 L215.57,72.864 L213.04,72.864 L213.04,75.878 L211.61,75.878 L211.61,77.924 L213.04,77.924 L213.04,84.634 C213.04,87.098 214.382,88 216.538,88 L218.518,88 Z M222.104,74.272 C222.984,74.272 223.688,73.568 223.688,72.666 C223.688,71.764 222.984,71.06 222.104,71.06 C221.202,71.06 220.498,71.764 220.498,72.666 C220.498,73.568 221.202,74.272 222.104,74.272 Z M223.336,88 L223.336,75.878 L220.828,75.878 L220.828,88 L223.336,88 Z M229.144,88 L229.144,81.62 C229.144,79.046 230.288,78.276 232.136,78.276 L232.774,78.276 L232.774,75.68 C231.058,75.68 229.848,76.428 229.144,77.638 L229.144,75.878 L226.636,75.878 L226.636,88 L229.144,88 Z M69.754,119.198 C72.724,119.198 74.66,117.548 75.342,115.172 L72.636,115.172 C72.174,116.426 71.25,117.086 69.754,117.086 C67.73,117.086 66.388,115.59 66.388,112.928 C66.388,110.288 67.73,108.792 69.754,108.792 C71.25,108.792 72.218,109.54 72.636,110.706 L75.342,110.706 C74.66,108.154 72.724,106.68 69.754,106.68 C66.278,106.68 63.814,109.144 63.814,112.928 C63.814,116.734 66.278,119.198 69.754,119.198 Z M80.358,119 L80.358,112.224 C80.358,110.002 81.568,108.858 83.416,108.858 C85.242,108.858 86.452,110.002 86.452,112.224 L86.452,119 L88.938,119 L88.938,111.85 C88.938,108.462 86.826,106.68 84.12,106.68 C82.558,106.68 81.194,107.274 80.358,108.286 L80.358,102.72 L77.85,102.72 L77.85,119 L80.358,119 Z M97.342,119.198 C100.312,119.198 102.226,117.504 102.908,115.392 L100.202,115.392 C99.74,116.338 98.882,117.086 97.342,117.086 C95.494,117.086 94.064,115.876 93.888,113.874 L103.15,113.874 C103.216,113.456 103.238,113.06 103.238,112.642 C103.238,109.078 100.796,106.68 97.342,106.68 C93.756,106.68 91.292,109.122 91.292,112.928 C91.292,116.734 93.866,119.198 97.342,119.198 Z M100.62,111.85 L93.91,111.85 C94.174,109.936 95.538,108.792 97.232,108.792 C99.102,108.792 100.576,109.98 100.62,111.85 Z M113.424,119 L113.424,116.954 L107.924,116.954 L113.424,108.924 L113.424,106.878 L105.02,106.878 L105.02,108.924 L110.542,108.924 L105.02,116.954 L105.02,119 L113.424,119 Z M124.292,119 L124.292,102.72 L121.784,102.72 L121.784,119 L124.292,119 Z M132.806,119.198 C135.776,119.198 137.69,117.504 138.372,115.392 L135.666,115.392 C135.204,116.338 134.346,117.086 132.806,117.086 C130.958,117.086 129.528,115.876 129.352,113.874 L138.614,113.874 C138.68,113.456 138.702,113.06 138.702,112.642 C138.702,109.078 136.26,106.68 132.806,106.68 C129.22,106.68 126.756,109.122 126.756,112.928 C126.756,116.734 129.33,119.198 132.806,119.198 Z M136.084,111.85 L129.374,111.85 C129.638,109.936 131.002,108.792 132.696,108.792 C134.566,108.792 136.04,109.98 136.084,111.85 Z M145.566,119.198 C148.426,119.198 150.208,117.658 150.208,115.612 C150.076,111.234 143.234,112.598 143.234,110.156 C143.234,109.342 143.938,108.792 145.28,108.792 C146.644,108.792 147.458,109.518 147.546,110.574 L150.054,110.574 C149.922,108.154 148.118,106.68 145.368,106.68 C142.508,106.68 140.704,108.242 140.704,110.178 C140.704,114.622 147.744,113.258 147.744,115.634 C147.744,116.47 146.974,117.086 145.522,117.086 C144.136,117.086 143.19,116.272 143.102,115.282 L140.506,115.282 C140.616,117.482 142.662,119.198 145.566,119.198 Z M161.142,119 L161.142,112.224 C161.142,110.002 162.352,108.858 164.2,108.858 C166.026,108.858 167.236,110.002 167.236,112.224 L167.236,119 L169.722,119 L169.722,112.224 C169.722,110.002 170.932,108.858 172.78,108.858 C174.606,108.858 175.816,110.002 175.816,112.224 L175.816,119 L178.302,119 L178.302,111.85 C178.302,108.462 176.146,106.68 173.308,106.68 C171.548,106.68 169.832,107.604 169.084,109.078 C168.248,107.494 166.642,106.68 164.728,106.68 C163.276,106.68 161.956,107.274 161.142,108.264 L161.142,106.878 L158.634,106.878 L158.634,119 L161.142,119 Z M186.706,119.198 C189.676,119.198 191.59,117.504 192.272,115.392 L189.566,115.392 C189.104,116.338 188.246,117.086 186.706,117.086 C184.858,117.086 183.428,115.876 183.252,113.874 L192.514,113.874 C192.58,113.456 192.602,113.06 192.602,112.642 C192.602,109.078 190.16,106.68 186.706,106.68 C183.12,106.68 180.656,109.122 180.656,112.928 C180.656,116.734 183.23,119.198 186.706,119.198 Z M189.984,111.85 L183.274,111.85 C183.538,109.936 184.902,108.792 186.596,108.792 C188.466,108.792 189.94,109.98 189.984,111.85 Z M196.342,105.272 C197.222,105.272 197.926,104.568 197.926,103.666 C197.926,102.764 197.222,102.06 196.342,102.06 C195.44,102.06 194.736,102.764 194.736,103.666 C194.736,104.568 195.44,105.272 196.342,105.272 Z M197.574,119 L197.574,106.878 L195.066,106.878 L195.066,119 L197.574,119 Z M203.382,119 L203.382,102.72 L200.874,102.72 L200.874,119 L203.382,119 Z M209.19,119 L209.19,102.72 L206.682,102.72 L206.682,119 L209.19,119 Z M217.704,119.198 C220.674,119.198 222.588,117.504 223.27,115.392 L220.564,115.392 C220.102,116.338 219.244,117.086 217.704,117.086 C215.856,117.086 214.426,115.876 214.25,113.874 L223.512,113.874 C223.578,113.456 223.6,113.06 223.6,112.642 C223.6,109.078 221.158,106.68 217.704,106.68 C214.118,106.68 211.654,109.122 211.654,112.928 C211.654,116.734 214.228,119.198 217.704,119.198 Z M220.982,111.85 L214.272,111.85 C214.536,109.936 215.9,108.792 217.594,108.792 C219.464,108.792 220.938,109.98 220.982,111.85 Z M230.948,119.176 C232.378,119.176 233.742,118.582 234.534,117.548 L234.534,119 L237.042,119 L237.042,106.878 L234.534,106.878 L234.534,113.632 C234.534,115.854 233.324,116.998 231.476,116.998 C229.65,116.998 228.44,115.854 228.44,113.632 L228.44,106.878 L225.954,106.878 L225.954,114.006 C225.954,117.394 228.11,119.176 230.948,119.176 Z M242.85,119 L242.85,112.62 C242.85,110.046 243.994,109.276 245.842,109.276 L246.48,109.276 L246.48,106.68 C244.764,106.68 243.554,107.428 242.85,108.638 L242.85,106.878 L240.342,106.878 L240.342,119 L242.85,119 Z M253.19,119.198 C256.05,119.198 257.832,117.658 257.832,115.612 C257.7,111.234 250.858,112.598 250.858,110.156 C250.858,109.342 251.562,108.792 252.904,108.792 C254.268,108.792 255.082,109.518 255.17,110.574 L257.678,110.574 C257.546,108.154 255.742,106.68 252.992,106.68 C250.132,106.68 248.328,108.242 248.328,110.178 C248.328,114.622 255.368,113.258 255.368,115.634 C255.368,116.47 254.598,117.086 253.146,117.086 C251.76,117.086 250.814,116.272 250.726,115.282 L248.13,115.282 C248.24,117.482 250.286,119.198 253.19,119.198 Z M70.348,155.984 C74.132,155.984 76.266,153.498 76.266,150.198 L76.266,137.878 L73.736,137.878 L73.736,139.638 C72.988,138.604 71.514,137.68 69.534,137.68 C66.344,137.68 63.814,140.144 63.814,143.884 C63.814,147.624 66.344,150.198 69.534,150.198 C71.514,150.198 72.966,149.208 73.736,148.174 L73.736,150.198 C73.736,152.618 72.284,153.806 70.348,153.806 C68.61,153.806 67.268,152.948 66.894,151.694 L64.408,151.694 C64.716,154.378 67.114,155.984 70.348,155.984 Z M70.062,148.02 C68.192,148.02 66.388,146.502 66.388,143.884 C66.388,141.266 68.192,139.858 70.062,139.858 C71.954,139.858 73.736,141.332 73.736,143.928 C73.736,146.546 71.954,148.02 70.062,148.02 Z M82.118,137.02 L86.98,134.622 L86.98,132.488 L82.118,135.172 L82.118,137.02 Z M84.78,150.198 C87.75,150.198 89.664,148.504 90.346,146.392 L87.64,146.392 C87.178,147.338 86.32,148.086 84.78,148.086 C82.932,148.086 81.502,146.876 81.326,144.874 L90.588,144.874 C90.654,144.456 90.676,144.06 90.676,143.642 C90.676,140.078 88.234,137.68 84.78,137.68 C81.194,137.68 78.73,140.122 78.73,143.928 C78.73,147.734 81.304,150.198 84.78,150.198 Z M88.058,142.85 L81.348,142.85 C81.612,140.936 82.976,139.792 84.67,139.792 C86.54,139.792 88.014,140.98 88.058,142.85 Z M95.648,150 L95.648,143.62 C95.648,141.046 96.792,140.276 98.64,140.276 L99.278,140.276 L99.278,137.68 C97.562,137.68 96.352,138.428 95.648,139.638 L95.648,137.878 L93.14,137.878 L93.14,150 L95.648,150 Z M106.428,150.198 C108.452,150.198 109.904,149.23 110.674,148.196 L110.674,150 L113.204,150 L113.204,137.878 L110.674,137.878 L110.674,139.638 C109.926,138.648 108.518,137.68 106.472,137.68 C103.282,137.68 100.752,140.144 100.752,143.884 C100.752,147.624 103.282,150.198 106.428,150.198 Z M107,148.02 C105.13,148.02 103.326,146.502 103.326,143.884 C103.326,141.266 105.13,139.858 107,139.858 C108.892,139.858 110.674,141.332 110.674,143.928 C110.674,146.546 108.892,148.02 107,148.02 Z M119.012,150 L119.012,143.224 C119.012,141.002 120.222,139.858 122.07,139.858 C123.896,139.858 125.106,141.002 125.106,143.224 L125.106,150 L127.592,150 L127.592,142.85 C127.592,139.462 125.458,137.68 122.62,137.68 C121.168,137.68 119.826,138.274 119.012,139.264 L119.012,137.878 L116.504,137.878 L116.504,150 L119.012,150 Z M136.656,150 L136.656,147.91 L135.116,147.91 C134.06,147.91 133.708,147.536 133.708,146.634 L133.708,139.924 L136.656,139.924 L136.656,137.878 L133.708,137.878 L133.708,134.864 L131.178,134.864 L131.178,137.878 L129.748,137.878 L129.748,139.924 L131.178,139.924 L131.178,146.634 C131.178,149.098 132.52,150 134.676,150 L136.656,150 Z M143.366,150.198 C146.226,150.198 148.008,148.658 148.008,146.612 C147.876,142.234 141.034,143.598 141.034,141.156 C141.034,140.342 141.738,139.792 143.08,139.792 C144.444,139.792 145.258,140.518 145.346,141.574 L147.854,141.574 C147.722,139.154 145.918,137.68 143.168,137.68 C140.308,137.68 138.504,139.242 138.504,141.178 C138.504,145.622 145.544,144.258 145.544,146.634 C145.544,147.47 144.774,148.086 143.322,148.086 C141.936,148.086 140.99,147.272 140.902,146.282 L138.306,146.282 C138.416,148.482 140.462,150.198 143.366,150.198 Z" id="Garantirdepouvoirinvestirchezlesmeilleursgérants" fill="#333B3E" fill-rule="nonzero"></path>
                <rect id="Rectangle" fill="#367DFF" x="14" y="24" width="8" height="240" rx="4"></rect>
            </g>
        </g>
    </g>
</svg>