<?xml version="1.0" encoding="UTF-8"?>
<svg width="390px" height="362px" viewBox="0 0 390 362" version="1.1" xmlns="http://www.w3.org/2000/svg" xmlns:xlink="http://www.w3.org/1999/xlink">
    <!-- Generator: Sketch 62 (91390) - https://sketch.com -->
    <title>identifier</title>
    <desc>Created with Sketch.</desc>
    <defs>
        <path d="M10,0 L274.441898,0 C278.922843,-2.25132122e-06 282.85676,2.98081084 284.069005,7.29466476 C301.356335,68.8127295 310,114.381175 310,144 C310,173.569952 301.384837,217.190826 284.15451,274.86262 C282.889155,279.097914 278.993273,282 274.572997,282 L10,282 C4.4771525,282 6.76353751e-16,277.522847 0,272 L0,10 C-6.76353751e-16,4.4771525 4.4771525,1.01453063e-15 10,0 Z" id="path-1"></path>
        <filter x="-19.4%" y="-21.3%" width="138.7%" height="142.6%" filterUnits="objectBoundingBox" id="filter-2">
            <feMorphology radius="5" operator="dilate" in="SourceAlpha" result="shadowSpreadOuter1"></feMorphology>
            <feOffset dx="0" dy="0" in="shadowSpreadOuter1" result="shadowOffsetOuter1"></feOffset>
            <feGaussianBlur stdDeviation="15" in="shadowOffsetOuter1" result="shadowBlurOuter1"></feGaussianBlur>
            <feColorMatrix values="0 0 0 0 0.956862745   0 0 0 0 0.964705882   0 0 0 0 0.980392157  0 0 0 1 0" type="matrix" in="shadowBlurOuter1"></feColorMatrix>
        </filter>
    </defs>
    <g id="Page-1" stroke="none" stroke-width="1" fill="none" fill-rule="evenodd">
        <g id="Bloc-4" transform="translate(-610.000000, -231.000000)">
            <g id="identifier" transform="translate(650.000000, 271.000000)">
                <g id="Rectangle">
                    <use fill="black" fill-opacity="1" filter="url(#filter-2)" xlink:href="#path-1"></use>
                    <use fill="#FFFFFF" fill-rule="evenodd" xlink:href="#path-1"></use>
                </g>
                <g id="Group" transform="translate(63.000000, 187.000000)">
                    <circle id="Oval" fill="#367DFF" cx="29" cy="29" r="29"></circle>
                    <polygon id="" fill="#FFFFFF" fill-rule="nonzero" points="30 39.52 40.02 29.5 30 19.48 28.23 21.25 35.22 28.27 19.98 28.27 19.98 30.73 35.22 30.73 28.23 37.75"></polygon>
                </g>
                <path d="M67.158,73 L67.158,57.71 L64.65,57.71 L64.65,73 L67.158,73 Z M75.342,73.198 C77.322,73.198 78.774,72.274 79.544,71.174 L79.544,73 L82.074,73 L82.074,56.72 L79.544,56.72 L79.544,62.572 C78.62,61.428 76.948,60.68 75.364,60.68 C72.152,60.68 69.622,63.144 69.622,66.884 C69.622,70.624 72.152,73.198 75.342,73.198 Z M75.87,71.02 C74,71.02 72.196,69.502 72.196,66.884 C72.196,64.266 74,62.858 75.87,62.858 C77.762,62.858 79.544,64.332 79.544,66.928 C79.544,69.546 77.762,71.02 75.87,71.02 Z M90.588,73.198 C93.558,73.198 95.472,71.504 96.154,69.392 L93.448,69.392 C92.986,70.338 92.128,71.086 90.588,71.086 C88.74,71.086 87.31,69.876 87.134,67.874 L96.396,67.874 C96.462,67.456 96.484,67.06 96.484,66.642 C96.484,63.078 94.042,60.68 90.588,60.68 C87.002,60.68 84.538,63.122 84.538,66.928 C84.538,70.734 87.112,73.198 90.588,73.198 Z M93.866,65.85 L87.156,65.85 C87.42,63.936 88.784,62.792 90.478,62.792 C92.348,62.792 93.822,63.98 93.866,65.85 Z M101.456,73 L101.456,66.224 C101.456,64.002 102.666,62.858 104.514,62.858 C106.34,62.858 107.55,64.002 107.55,66.224 L107.55,73 L110.036,73 L110.036,65.85 C110.036,62.462 107.902,60.68 105.064,60.68 C103.612,60.68 102.27,61.274 101.456,62.264 L101.456,60.878 L98.948,60.878 L98.948,73 L101.456,73 Z M119.1,73 L119.1,70.91 L117.56,70.91 C116.504,70.91 116.152,70.536 116.152,69.634 L116.152,62.924 L119.1,62.924 L119.1,60.878 L116.152,60.878 L116.152,57.864 L113.622,57.864 L113.622,60.878 L112.192,60.878 L112.192,62.924 L113.622,62.924 L113.622,69.634 C113.622,72.098 114.964,73 117.12,73 L119.1,73 Z M122.686,59.272 C123.566,59.272 124.27,58.568 124.27,57.666 C124.27,56.764 123.566,56.06 122.686,56.06 C121.784,56.06 121.08,56.764 121.08,57.666 C121.08,58.568 121.784,59.272 122.686,59.272 Z M123.918,73 L123.918,60.878 L121.41,60.878 L121.41,73 L123.918,73 Z M130.056,73 L130.056,62.924 L132.3,62.924 L132.3,60.878 L130.056,60.878 L130.056,60.02 C130.056,58.634 130.584,58.106 132.124,58.106 L132.124,56.016 C128.956,56.016 127.526,57.226 127.526,60.02 L127.526,60.878 L126.096,60.878 L126.096,62.924 L127.526,62.924 L127.526,73 L130.056,73 Z M135.798,59.272 C136.678,59.272 137.382,58.568 137.382,57.666 C137.382,56.764 136.678,56.06 135.798,56.06 C134.896,56.06 134.192,56.764 134.192,57.666 C134.192,58.568 134.896,59.272 135.798,59.272 Z M137.03,73 L137.03,60.878 L134.522,60.878 L134.522,73 L137.03,73 Z M145.544,73.198 C148.514,73.198 150.428,71.504 151.11,69.392 L148.404,69.392 C147.942,70.338 147.084,71.086 145.544,71.086 C143.696,71.086 142.266,69.876 142.09,67.874 L151.352,67.874 C151.418,67.456 151.44,67.06 151.44,66.642 C151.44,63.078 148.998,60.68 145.544,60.68 C141.958,60.68 139.494,63.122 139.494,66.928 C139.494,70.734 142.068,73.198 145.544,73.198 Z M148.822,65.85 L142.112,65.85 C142.376,63.936 143.74,62.792 145.434,62.792 C147.304,62.792 148.778,63.98 148.822,65.85 Z M156.412,73 L156.412,66.62 C156.412,64.046 157.556,63.276 159.404,63.276 L160.042,63.276 L160.042,60.68 C158.326,60.68 157.116,61.428 156.412,62.638 L156.412,60.878 L153.904,60.878 L153.904,73 L156.412,73 Z M170.58,73 L170.58,56.72 L168.072,56.72 L168.072,73 L170.58,73 Z M179.094,73.198 C182.064,73.198 183.978,71.504 184.66,69.392 L181.954,69.392 C181.492,70.338 180.634,71.086 179.094,71.086 C177.246,71.086 175.816,69.876 175.64,67.874 L184.902,67.874 C184.968,67.456 184.99,67.06 184.99,66.642 C184.99,63.078 182.548,60.68 179.094,60.68 C175.508,60.68 173.044,63.122 173.044,66.928 C173.044,70.734 175.618,73.198 179.094,73.198 Z M182.372,65.85 L175.662,65.85 C175.926,63.936 177.29,62.792 178.984,62.792 C180.854,62.792 182.328,63.98 182.372,65.85 Z M191.854,73.198 C194.714,73.198 196.496,71.658 196.496,69.612 C196.364,65.234 189.522,66.598 189.522,64.156 C189.522,63.342 190.226,62.792 191.568,62.792 C192.932,62.792 193.746,63.518 193.834,64.574 L196.342,64.574 C196.21,62.154 194.406,60.68 191.656,60.68 C188.796,60.68 186.992,62.242 186.992,64.178 C186.992,68.622 194.032,67.258 194.032,69.634 C194.032,70.47 193.262,71.086 191.81,71.086 C190.424,71.086 189.478,70.272 189.39,69.282 L186.794,69.282 C186.904,71.482 188.95,73.198 191.854,73.198 Z M67.158,104 L67.158,97.224 C67.158,95.002 68.368,93.858 70.216,93.858 C72.042,93.858 73.252,95.002 73.252,97.224 L73.252,104 L75.738,104 L75.738,97.224 C75.738,95.002 76.948,93.858 78.796,93.858 C80.622,93.858 81.832,95.002 81.832,97.224 L81.832,104 L84.318,104 L84.318,96.85 C84.318,93.462 82.162,91.68 79.324,91.68 C77.564,91.68 75.848,92.604 75.1,94.078 C74.264,92.494 72.658,91.68 70.744,91.68 C69.292,91.68 67.972,92.274 67.158,93.264 L67.158,91.878 L64.65,91.878 L64.65,104 L67.158,104 Z M92.722,104.198 C95.692,104.198 97.606,102.504 98.288,100.392 L95.582,100.392 C95.12,101.338 94.262,102.086 92.722,102.086 C90.874,102.086 89.444,100.876 89.268,98.874 L98.53,98.874 C98.596,98.456 98.618,98.06 98.618,97.642 C98.618,94.078 96.176,91.68 92.722,91.68 C89.136,91.68 86.672,94.122 86.672,97.928 C86.672,101.734 89.246,104.198 92.722,104.198 Z M96,96.85 L89.29,96.85 C89.554,94.936 90.918,93.792 92.612,93.792 C94.482,93.792 95.956,94.98 96,96.85 Z M102.358,90.272 C103.238,90.272 103.942,89.568 103.942,88.666 C103.942,87.764 103.238,87.06 102.358,87.06 C101.456,87.06 100.752,87.764 100.752,88.666 C100.752,89.568 101.456,90.272 102.358,90.272 Z M103.59,104 L103.59,91.878 L101.082,91.878 L101.082,104 L103.59,104 Z M109.398,104 L109.398,87.72 L106.89,87.72 L106.89,104 L109.398,104 Z M115.206,104 L115.206,87.72 L112.698,87.72 L112.698,104 L115.206,104 Z M123.72,104.198 C126.69,104.198 128.604,102.504 129.286,100.392 L126.58,100.392 C126.118,101.338 125.26,102.086 123.72,102.086 C121.872,102.086 120.442,100.876 120.266,98.874 L129.528,98.874 C129.594,98.456 129.616,98.06 129.616,97.642 C129.616,94.078 127.174,91.68 123.72,91.68 C120.134,91.68 117.67,94.122 117.67,97.928 C117.67,101.734 120.244,104.198 123.72,104.198 Z M126.998,96.85 L120.288,96.85 C120.552,94.936 121.916,93.792 123.61,93.792 C125.48,93.792 126.954,94.98 126.998,96.85 Z M136.964,104.176 C138.394,104.176 139.758,103.582 140.55,102.548 L140.55,104 L143.058,104 L143.058,91.878 L140.55,91.878 L140.55,98.632 C140.55,100.854 139.34,101.998 137.492,101.998 C135.666,101.998 134.456,100.854 134.456,98.632 L134.456,91.878 L131.97,91.878 L131.97,99.006 C131.97,102.394 134.126,104.176 136.964,104.176 Z M148.866,104 L148.866,97.62 C148.866,95.046 150.01,94.276 151.858,94.276 L152.496,94.276 L152.496,91.68 C150.78,91.68 149.57,92.428 148.866,93.638 L148.866,91.878 L146.358,91.878 L146.358,104 L148.866,104 Z M159.206,104.198 C162.066,104.198 163.848,102.658 163.848,100.612 C163.716,96.234 156.874,97.598 156.874,95.156 C156.874,94.342 157.578,93.792 158.92,93.792 C160.284,93.792 161.098,94.518 161.186,95.574 L163.694,95.574 C163.562,93.154 161.758,91.68 159.008,91.68 C156.148,91.68 154.344,93.242 154.344,95.178 C154.344,99.622 161.384,98.258 161.384,100.634 C161.384,101.47 160.614,102.086 159.162,102.086 C157.776,102.086 156.83,101.272 156.742,100.282 L154.146,100.282 C154.256,102.482 156.302,104.198 159.206,104.198 Z M177.972,109.984 C181.756,109.984 183.89,107.498 183.89,104.198 L183.89,91.878 L181.36,91.878 L181.36,93.638 C180.612,92.604 179.138,91.68 177.158,91.68 C173.968,91.68 171.438,94.144 171.438,97.884 C171.438,101.624 173.968,104.198 177.158,104.198 C179.138,104.198 180.59,103.208 181.36,102.174 L181.36,104.198 C181.36,106.618 179.908,107.806 177.972,107.806 C176.234,107.806 174.892,106.948 174.518,105.694 L172.032,105.694 C172.34,108.378 174.738,109.984 177.972,109.984 Z M177.686,102.02 C175.816,102.02 174.012,100.502 174.012,97.884 C174.012,95.266 175.816,93.858 177.686,93.858 C179.578,93.858 181.36,95.332 181.36,97.928 C181.36,100.546 179.578,102.02 177.686,102.02 Z M189.742,91.02 L194.604,88.622 L194.604,86.488 L189.742,89.172 L189.742,91.02 Z M192.404,104.198 C195.374,104.198 197.288,102.504 197.97,100.392 L195.264,100.392 C194.802,101.338 193.944,102.086 192.404,102.086 C190.556,102.086 189.126,100.876 188.95,98.874 L198.212,98.874 C198.278,98.456 198.3,98.06 198.3,97.642 C198.3,94.078 195.858,91.68 192.404,91.68 C188.818,91.68 186.354,94.122 186.354,97.928 C186.354,101.734 188.928,104.198 192.404,104.198 Z M195.682,96.85 L188.972,96.85 C189.236,94.936 190.6,93.792 192.294,93.792 C194.164,93.792 195.638,94.98 195.682,96.85 Z M203.272,104 L203.272,97.62 C203.272,95.046 204.416,94.276 206.264,94.276 L206.902,94.276 L206.902,91.68 C205.186,91.68 203.976,92.428 203.272,93.638 L203.272,91.878 L200.764,91.878 L200.764,104 L203.272,104 Z M214.052,104.198 C216.076,104.198 217.528,103.23 218.298,102.196 L218.298,104 L220.828,104 L220.828,91.878 L218.298,91.878 L218.298,93.638 C217.55,92.648 216.142,91.68 214.096,91.68 C210.906,91.68 208.376,94.144 208.376,97.884 C208.376,101.624 210.906,104.198 214.052,104.198 Z M214.624,102.02 C212.754,102.02 210.95,100.502 210.95,97.884 C210.95,95.266 212.754,93.858 214.624,93.858 C216.516,93.858 218.298,95.332 218.298,97.928 C218.298,100.546 216.516,102.02 214.624,102.02 Z M226.636,104 L226.636,97.224 C226.636,95.002 227.846,93.858 229.694,93.858 C231.52,93.858 232.73,95.002 232.73,97.224 L232.73,104 L235.216,104 L235.216,96.85 C235.216,93.462 233.082,91.68 230.244,91.68 C228.792,91.68 227.45,92.274 226.636,93.264 L226.636,91.878 L224.128,91.878 L224.128,104 L226.636,104 Z M244.28,104 L244.28,101.91 L242.74,101.91 C241.684,101.91 241.332,101.536 241.332,100.634 L241.332,93.924 L244.28,93.924 L244.28,91.878 L241.332,91.878 L241.332,88.864 L238.802,88.864 L238.802,91.878 L237.372,91.878 L237.372,93.924 L238.802,93.924 L238.802,100.634 C238.802,103.098 240.144,104 242.3,104 L244.28,104 Z M250.99,104.198 C253.85,104.198 255.632,102.658 255.632,100.612 C255.5,96.234 248.658,97.598 248.658,95.156 C248.658,94.342 249.362,93.792 250.704,93.792 C252.068,93.792 252.882,94.518 252.97,95.574 L255.478,95.574 C255.346,93.154 253.542,91.68 250.792,91.68 C247.932,91.68 246.128,93.242 246.128,95.178 C246.128,99.622 253.168,98.258 253.168,100.634 C253.168,101.47 252.398,102.086 250.946,102.086 C249.56,102.086 248.614,101.272 248.526,100.282 L245.93,100.282 C246.04,102.482 248.086,104.198 250.99,104.198 Z M69.864,135.198 C72.834,135.198 74.748,133.504 75.43,131.392 L72.724,131.392 C72.262,132.338 71.404,133.086 69.864,133.086 C68.016,133.086 66.586,131.876 66.41,129.874 L75.672,129.874 C75.738,129.456 75.76,129.06 75.76,128.642 C75.76,125.078 73.318,122.68 69.864,122.68 C66.278,122.68 63.814,125.122 63.814,128.928 C63.814,132.734 66.388,135.198 69.864,135.198 Z M73.142,127.85 L66.432,127.85 C66.696,125.936 68.06,124.792 69.754,124.792 C71.624,124.792 73.098,125.98 73.142,127.85 Z M80.732,135 L80.732,128.224 C80.732,126.002 81.942,124.858 83.79,124.858 C85.616,124.858 86.826,126.002 86.826,128.224 L86.826,135 L89.312,135 L89.312,127.85 C89.312,124.462 87.178,122.68 84.34,122.68 C82.888,122.68 81.546,123.274 80.732,124.264 L80.732,122.878 L78.224,122.878 L78.224,135 L80.732,135 Z M100.73,135 L100.73,118.72 L98.222,118.72 L98.222,135 L100.73,135 Z M109.244,135.198 C112.214,135.198 114.128,133.504 114.81,131.392 L112.104,131.392 C111.642,132.338 110.784,133.086 109.244,133.086 C107.396,133.086 105.966,131.876 105.79,129.874 L115.052,129.874 C115.118,129.456 115.14,129.06 115.14,128.642 C115.14,125.078 112.698,122.68 109.244,122.68 C105.658,122.68 103.194,125.122 103.194,128.928 C103.194,132.734 105.768,135.198 109.244,135.198 Z M112.522,127.85 L105.812,127.85 C106.076,125.936 107.44,124.792 109.134,124.792 C111.004,124.792 112.478,125.98 112.522,127.85 Z M123.764,135 L128.384,122.878 L125.722,122.878 L122.29,132.756 L118.858,122.878 L116.174,122.878 L120.772,135 L123.764,135 Z M132.828,122.02 L137.69,119.622 L137.69,117.488 L132.828,120.172 L132.828,122.02 Z M135.49,135.198 C138.46,135.198 140.374,133.504 141.056,131.392 L138.35,131.392 C137.888,132.338 137.03,133.086 135.49,133.086 C133.642,133.086 132.212,131.876 132.036,129.874 L141.298,129.874 C141.364,129.456 141.386,129.06 141.386,128.642 C141.386,125.078 138.944,122.68 135.49,122.68 C131.904,122.68 129.44,125.122 129.44,128.928 C129.44,132.734 132.014,135.198 135.49,135.198 Z M138.768,127.85 L132.058,127.85 C132.322,125.936 133.686,124.792 135.38,124.792 C137.25,124.792 138.724,125.98 138.768,127.85 Z M149.064,135.198 C152.034,135.198 153.948,133.504 154.63,131.392 L151.924,131.392 C151.462,132.338 150.604,133.086 149.064,133.086 C147.216,133.086 145.786,131.876 145.61,129.874 L154.872,129.874 C154.938,129.456 154.96,129.06 154.96,128.642 C154.96,125.078 152.518,122.68 149.064,122.68 C145.478,122.68 143.014,125.122 143.014,128.928 C143.014,132.734 145.588,135.198 149.064,135.198 Z M152.342,127.85 L145.632,127.85 C145.896,125.936 147.26,124.792 148.954,124.792 C150.824,124.792 152.298,125.98 152.342,127.85 Z M168.028,135.198 C170.008,135.198 171.46,134.274 172.23,133.174 L172.23,135 L174.76,135 L174.76,118.72 L172.23,118.72 L172.23,124.572 C171.306,123.428 169.634,122.68 168.05,122.68 C164.838,122.68 162.308,125.144 162.308,128.884 C162.308,132.624 164.838,135.198 168.028,135.198 Z M168.556,133.02 C166.686,133.02 164.882,131.502 164.882,128.884 C164.882,126.266 166.686,124.858 168.556,124.858 C170.448,124.858 172.23,126.332 172.23,128.928 C172.23,131.546 170.448,133.02 168.556,133.02 Z M183.274,135.198 C186.244,135.198 188.158,133.504 188.84,131.392 L186.134,131.392 C185.672,132.338 184.814,133.086 183.274,133.086 C181.426,133.086 179.996,131.876 179.82,129.874 L189.082,129.874 C189.148,129.456 189.17,129.06 189.17,128.642 C189.17,125.078 186.728,122.68 183.274,122.68 C179.688,122.68 177.224,125.122 177.224,128.928 C177.224,132.734 179.798,135.198 183.274,135.198 Z M186.552,127.85 L179.842,127.85 C180.106,125.936 181.47,124.792 183.164,124.792 C185.034,124.792 186.508,125.98 186.552,127.85 Z M200.192,135 L200.192,124.924 L202.436,124.924 L202.436,122.878 L200.192,122.878 L200.192,122.02 C200.192,120.634 200.72,120.106 202.26,120.106 L202.26,118.016 C199.092,118.016 197.662,119.226 197.662,122.02 L197.662,122.878 L196.232,122.878 L196.232,124.924 L197.662,124.924 L197.662,135 L200.192,135 Z M209.916,135.198 C213.392,135.198 216.208,132.734 216.208,128.928 C216.208,125.122 213.48,122.68 210.026,122.68 C206.572,122.68 203.844,125.122 203.844,128.928 C203.844,132.734 206.462,135.198 209.916,135.198 Z M209.916,133.02 C208.024,133.02 206.396,131.678 206.396,128.928 C206.396,126.178 208.09,124.858 209.982,124.858 C211.852,124.858 213.634,126.178 213.634,128.928 C213.634,131.678 211.786,133.02 209.916,133.02 Z M221.202,135 L221.202,128.224 C221.202,126.002 222.412,124.858 224.26,124.858 C226.086,124.858 227.296,126.002 227.296,128.224 L227.296,135 L229.782,135 L229.782,127.85 C229.782,124.462 227.648,122.68 224.81,122.68 C223.358,122.68 222.016,123.274 221.202,124.264 L221.202,122.878 L218.694,122.878 L218.694,135 L221.202,135 Z M237.856,135.198 C239.836,135.198 241.288,134.274 242.058,133.174 L242.058,135 L244.588,135 L244.588,118.72 L242.058,118.72 L242.058,124.572 C241.134,123.428 239.462,122.68 237.878,122.68 C234.666,122.68 232.136,125.144 232.136,128.884 C232.136,132.624 234.666,135.198 237.856,135.198 Z M238.384,133.02 C236.514,133.02 234.71,131.502 234.71,128.884 C234.71,126.266 236.514,124.858 238.384,124.858 C240.276,124.858 242.058,126.332 242.058,128.928 C242.058,131.546 240.276,133.02 238.384,133.02 Z M252.288,135.198 C255.148,135.198 256.93,133.658 256.93,131.612 C256.798,127.234 249.956,128.598 249.956,126.156 C249.956,125.342 250.66,124.792 252.002,124.792 C253.366,124.792 254.18,125.518 254.268,126.574 L256.776,126.574 C256.644,124.154 254.84,122.68 252.09,122.68 C249.23,122.68 247.426,124.242 247.426,126.178 C247.426,130.622 254.466,129.258 254.466,131.634 C254.466,132.47 253.696,133.086 252.244,133.086 C250.858,133.086 249.912,132.272 249.824,131.282 L247.228,131.282 C247.338,133.482 249.384,135.198 252.288,135.198 Z" id="Identifierlesmeilleursgérantsenlevéedefonds" fill="#333B3E" fill-rule="nonzero"></path>
                <rect id="Rectangle" fill="#367DFF" x="14" y="24" width="8" height="240" rx="4"></rect>
            </g>
        </g>
    </g>
</svg>