<?xml version="1.0" encoding="UTF-8"?>
<svg width="390px" height="362px" viewBox="0 0 390 362" version="1.1" xmlns="http://www.w3.org/2000/svg" xmlns:xlink="http://www.w3.org/1999/xlink">
    <!-- Generator: Sketch 62 (91390) - https://sketch.com -->
    <title>noter</title>
    <desc>Created with Sketch.</desc>
    <defs>
        <path d="M10,0 L274.441898,0 C278.922843,-2.25132122e-06 282.85676,2.98081084 284.069005,7.29466476 C301.356335,68.8127295 310,114.381175 310,144 C310,173.569952 301.384837,217.190826 284.15451,274.86262 C282.889155,279.097914 278.993273,282 274.572997,282 L10,282 C4.4771525,282 6.76353751e-16,277.522847 0,272 L0,10 C-6.76353751e-16,4.4771525 4.4771525,1.01453063e-15 10,0 Z" id="path-1"></path>
        <filter x="-19.4%" y="-21.3%" width="138.7%" height="142.6%" filterUnits="objectBoundingBox" id="filter-2">
            <feMorphology radius="5" operator="dilate" in="SourceAlpha" result="shadowSpreadOuter1"></feMorphology>
            <feOffset dx="0" dy="0" in="shadowSpreadOuter1" result="shadowOffsetOuter1"></feOffset>
            <feGaussianBlur stdDeviation="15" in="shadowOffsetOuter1" result="shadowBlurOuter1"></feGaussianBlur>
            <feColorMatrix values="0 0 0 0 0.956862745   0 0 0 0 0.964705882   0 0 0 0 0.980392157  0 0 0 1 0" type="matrix" in="shadowBlurOuter1"></feColorMatrix>
        </filter>
    </defs>
    <g id="Page-1" stroke="none" stroke-width="1" fill="none" fill-rule="evenodd">
        <g id="Bloc-4" transform="translate(-252.000000, -231.000000)">
            <g id="noter" transform="translate(292.000000, 271.000000)">
                <g id="Rectangle">
                    <use fill="black" fill-opacity="1" filter="url(#filter-2)" xlink:href="#path-1"></use>
                    <use fill="#FFFFFF" fill-rule="evenodd" xlink:href="#path-1"></use>
                </g>
                <g id="Group-2" transform="translate(63.000000, 187.000000)">
                    <circle id="Oval" fill="#367DFF" cx="29" cy="29" r="29"></circle>
                    <polygon id="" fill="#FFFFFF" fill-rule="nonzero" points="30 39.52 40.02 29.5 30 19.48 28.23 21.25 35.22 28.27 19.98 28.27 19.98 30.73 35.22 30.73 28.23 37.75"></polygon>
                </g>
                <path d="M77.158,88 L77.158,76.582 L84.704,88 L87.212,88 L87.212,72.688 L84.704,72.688 L84.704,84.084 L77.158,72.688 L74.65,72.688 L74.65,88 L77.158,88 Z M95.77,88.198 C99.246,88.198 102.062,85.734 102.062,81.928 C102.062,78.122 99.334,75.68 95.88,75.68 C92.426,75.68 89.698,78.122 89.698,81.928 C89.698,85.734 92.316,88.198 95.77,88.198 Z M95.77,86.02 C93.878,86.02 92.25,84.678 92.25,81.928 C92.25,79.178 93.944,77.858 95.836,77.858 C97.706,77.858 99.488,79.178 99.488,81.928 C99.488,84.678 97.64,86.02 95.77,86.02 Z M110.422,88 L110.422,85.91 L108.882,85.91 C107.826,85.91 107.474,85.536 107.474,84.634 L107.474,77.924 L110.422,77.924 L110.422,75.878 L107.474,75.878 L107.474,72.864 L104.944,72.864 L104.944,75.878 L103.514,75.878 L103.514,77.924 L104.944,77.924 L104.944,84.634 C104.944,87.098 106.286,88 108.442,88 L110.422,88 Z M117.946,88.198 C120.916,88.198 122.83,86.504 123.512,84.392 L120.806,84.392 C120.344,85.338 119.486,86.086 117.946,86.086 C116.098,86.086 114.668,84.876 114.492,82.874 L123.754,82.874 C123.82,82.456 123.842,82.06 123.842,81.642 C123.842,78.078 121.4,75.68 117.946,75.68 C114.36,75.68 111.896,78.122 111.896,81.928 C111.896,85.734 114.47,88.198 117.946,88.198 Z M121.224,80.85 L114.514,80.85 C114.778,78.936 116.142,77.792 117.836,77.792 C119.706,77.792 121.18,78.98 121.224,80.85 Z M128.814,88 L128.814,81.62 C128.814,79.046 129.958,78.276 131.806,78.276 L132.444,78.276 L132.444,75.68 C130.728,75.68 129.518,76.428 128.814,77.638 L128.814,75.878 L126.306,75.878 L126.306,88 L128.814,88 Z M142.982,88 L142.982,71.72 L140.474,71.72 L140.474,88 L142.982,88 Z M151.496,88.198 C154.466,88.198 156.38,86.504 157.062,84.392 L154.356,84.392 C153.894,85.338 153.036,86.086 151.496,86.086 C149.648,86.086 148.218,84.876 148.042,82.874 L157.304,82.874 C157.37,82.456 157.392,82.06 157.392,81.642 C157.392,78.078 154.95,75.68 151.496,75.68 C147.91,75.68 145.446,78.122 145.446,81.928 C145.446,85.734 148.02,88.198 151.496,88.198 Z M154.774,80.85 L148.064,80.85 C148.328,78.936 149.692,77.792 151.386,77.792 C153.256,77.792 154.73,78.98 154.774,80.85 Z M164.256,88.198 C167.116,88.198 168.898,86.658 168.898,84.612 C168.766,80.234 161.924,81.598 161.924,79.156 C161.924,78.342 162.628,77.792 163.97,77.792 C165.334,77.792 166.148,78.518 166.236,79.574 L168.744,79.574 C168.612,77.154 166.808,75.68 164.058,75.68 C161.198,75.68 159.394,77.242 159.394,79.178 C159.394,83.622 166.434,82.258 166.434,84.634 C166.434,85.47 165.664,86.086 164.212,86.086 C162.826,86.086 161.88,85.272 161.792,84.282 L159.196,84.282 C159.306,86.482 161.352,88.198 164.256,88.198 Z M80.348,124.984 C84.132,124.984 86.266,122.498 86.266,119.198 L86.266,106.878 L83.736,106.878 L83.736,108.638 C82.988,107.604 81.514,106.68 79.534,106.68 C76.344,106.68 73.814,109.144 73.814,112.884 C73.814,116.624 76.344,119.198 79.534,119.198 C81.514,119.198 82.966,118.208 83.736,117.174 L83.736,119.198 C83.736,121.618 82.284,122.806 80.348,122.806 C78.61,122.806 77.268,121.948 76.894,120.694 L74.408,120.694 C74.716,123.378 77.114,124.984 80.348,124.984 Z M80.062,117.02 C78.192,117.02 76.388,115.502 76.388,112.884 C76.388,110.266 78.192,108.858 80.062,108.858 C81.954,108.858 83.736,110.332 83.736,112.928 C83.736,115.546 81.954,117.02 80.062,117.02 Z M92.118,106.02 L96.98,103.622 L96.98,101.488 L92.118,104.172 L92.118,106.02 Z M94.78,119.198 C97.75,119.198 99.664,117.504 100.346,115.392 L97.64,115.392 C97.178,116.338 96.32,117.086 94.78,117.086 C92.932,117.086 91.502,115.876 91.326,113.874 L100.588,113.874 C100.654,113.456 100.676,113.06 100.676,112.642 C100.676,109.078 98.234,106.68 94.78,106.68 C91.194,106.68 88.73,109.122 88.73,112.928 C88.73,116.734 91.304,119.198 94.78,119.198 Z M98.058,111.85 L91.348,111.85 C91.612,109.936 92.976,108.792 94.67,108.792 C96.54,108.792 98.014,109.98 98.058,111.85 Z M105.648,119 L105.648,112.62 C105.648,110.046 106.792,109.276 108.64,109.276 L109.278,109.276 L109.278,106.68 C107.562,106.68 106.352,107.428 105.648,108.638 L105.648,106.878 L103.14,106.878 L103.14,119 L105.648,119 Z M116.428,119.198 C118.452,119.198 119.904,118.23 120.674,117.196 L120.674,119 L123.204,119 L123.204,106.878 L120.674,106.878 L120.674,108.638 C119.926,107.648 118.518,106.68 116.472,106.68 C113.282,106.68 110.752,109.144 110.752,112.884 C110.752,116.624 113.282,119.198 116.428,119.198 Z M117,117.02 C115.13,117.02 113.326,115.502 113.326,112.884 C113.326,110.266 115.13,108.858 117,108.858 C118.892,108.858 120.674,110.332 120.674,112.928 C120.674,115.546 118.892,117.02 117,117.02 Z M129.012,119 L129.012,112.224 C129.012,110.002 130.222,108.858 132.07,108.858 C133.896,108.858 135.106,110.002 135.106,112.224 L135.106,119 L137.592,119 L137.592,111.85 C137.592,108.462 135.458,106.68 132.62,106.68 C131.168,106.68 129.826,107.274 129.012,108.264 L129.012,106.878 L126.504,106.878 L126.504,119 L129.012,119 Z M146.656,119 L146.656,116.91 L145.116,116.91 C144.06,116.91 143.708,116.536 143.708,115.634 L143.708,108.924 L146.656,108.924 L146.656,106.878 L143.708,106.878 L143.708,103.864 L141.178,103.864 L141.178,106.878 L139.748,106.878 L139.748,108.924 L141.178,108.924 L141.178,115.634 C141.178,118.098 142.52,119 144.676,119 L146.656,119 Z M153.366,119.198 C156.226,119.198 158.008,117.658 158.008,115.612 C157.876,111.234 151.034,112.598 151.034,110.156 C151.034,109.342 151.738,108.792 153.08,108.792 C154.444,108.792 155.258,109.518 155.346,110.574 L157.854,110.574 C157.722,108.154 155.918,106.68 153.168,106.68 C150.308,106.68 148.504,108.242 148.504,110.178 C148.504,114.622 155.544,113.258 155.544,115.634 C155.544,116.47 154.774,117.086 153.322,117.086 C151.936,117.086 150.99,116.272 150.902,115.282 L148.306,115.282 C148.416,117.482 150.462,119.198 153.366,119.198 Z" id="Noterlesgérants" fill="#2D3436" fill-rule="nonzero"></path>
                <rect id="Rectangle" fill="#367DFF" x="14" y="24" width="8" height="240" rx="4"></rect>
            </g>
        </g>
    </g>
</svg>